<?xml version="1.0" encoding="utf-8"?>
<!-- Generator: Adobe Illustrator 26.0.1, SVG Export Plug-In . SVG Version: 6.00 Build 0)  -->
<svg version="1.1"
	 id="Layer_1" sodipodi:docname="logo-dark.svg" xmlns:cc="http://creativecommons.org/ns#" xmlns:dc="http://purl.org/dc/elements/1.1/" xmlns:inkscape="http://www.inkscape.org/namespaces/inkscape" xmlns:rdf="http://www.w3.org/1999/02/22-rdf-syntax-ns#" xmlns:sodipodi="http://sodipodi.sourceforge.net/DTD/sodipodi-0.dtd" xmlns:svg="http://www.w3.org/2000/svg"
	 xmlns="http://www.w3.org/2000/svg" xmlns:xlink="http://www.w3.org/1999/xlink" x="0px" y="0px" viewBox="0 0 476 819.7"
	 style="enable-background:new 0 0 476 819.7;" xml:space="preserve">
<style type="text/css">
	.st0{fill:#2F1044;}
	.st1{clip-path:url(#SVGID_00000056391633000775267270000012489249438195864977_);}
	.st2{fill:#FF0101;}
	.st3{fill:#EE2E21;}
	.st4{clip-path:url(#SVGID_00000015348166609472194400000005858097905172976783_);}
	.st5{fill:#4E833C;}
	.st6{fill:#FFFFFF;}
	.st7{fill:none;}
	.st8{clip-path:url(#SVGID_00000178203588252887451330000014147242780396799381_);}
	.st9{clip-path:url(#SVGID_00000053519638995459733970000008956859678168025248_);}
	.st10{clip-path:url(#SVGID_00000072974548426664854220000011118276503415585697_);}
	.st11{clip-path:url(#SVGID_00000136403584879332405200000016173757193817639319_);}
	.st12{font-family:'Corporative-Regular';}
	.st13{font-size:48px;}
</style>
<sodipodi:namedview  bordercolor="#666666" borderopacity="1" gridtolerance="10" guidetolerance="10" id="namedview207" inkscape:current-layer="g213" inkscape:cx="84.908153" inkscape:cy="550.91039" inkscape:pageopacity="0" inkscape:pageshadow="2" inkscape:window-height="708" inkscape:window-maximized="1" inkscape:window-width="1366" inkscape:window-x="0" inkscape:window-y="31" inkscape:zoom="0.50201293" objecttolerance="10" pagecolor="#ffffff" showgrid="false">
	</sodipodi:namedview>
<g id="g213" transform="translate(-51.5,13.900029)">
	<path id="rect4" class="st0" d="M93-13.9h396.3c22,0,39.9,17.8,39.9,39.9v740c0,22-17.8,39.9-39.9,39.9H93
		c-22,0-39.9-17.8-39.9-39.9V26C53.1,3.9,71-13.9,93-13.9z"/>
</g>
<g>
	<defs>
		<rect id="SVGID_1_" x="98" y="97.3" width="277.7" height="260"/>
	</defs>
	<clipPath id="SVGID_00000071554996964698054620000016617530560024239017_">
		<use xlink:href="#SVGID_1_"  style="overflow:visible;"/>
	</clipPath>
	<g style="clip-path:url(#SVGID_00000071554996964698054620000016617530560024239017_);">
		<path class="st2" d="M206,151.4C140,87.7,99,98,99,98c85.6,33.1,138.2,259.3,138.2,259.3S289.9,131,375.4,98
			c0,0-41.1-10.3-107,53.4C251,168.2,223.4,168.2,206,151.4"/>
	</g>
</g>
<path class="st3" d="M262.9,123.8c0,14.6-11.5,26.5-25.7,26.5c-14.2,0-25.7-11.8-25.7-26.5c0-14.6,11.5-26.4,25.7-26.4
	C251.4,97.4,262.9,109.2,262.9,123.8"/>
<g>
	<defs>
		<rect id="SVGID_00000083783344968213333210000013890359307856748474_" x="241.5" y="134.3" width="221.4" height="222.2"/>
	</defs>
	<clipPath id="SVGID_00000173847569842736819730000006487189041646016390_">
		<use xlink:href="#SVGID_00000083783344968213333210000013890359307856748474_"  style="overflow:visible;"/>
	</clipPath>
	<g style="clip-path:url(#SVGID_00000173847569842736819730000006487189041646016390_);">
		<path class="st5" d="M243,356.1c0,0,47-172.3,111.6-220.8c0,0-12.9,48.7-13.8,93.6c-0.5,26.3,22.7,46.7,48.8,42.9
			c25.3-3.8,55.6-11.2,73.2-26C462.7,245.7,433,326.8,243,356.1"/>
	</g>
</g>
<path class="st5" d="M401.1,232.8c0,14.6-11.5,26.5-25.7,26.5c-14.2,0-25.7-11.8-25.7-26.5c0-14.6,11.5-26.4,25.7-26.4
	C389.6,206.3,401.1,218.2,401.1,232.8"/>
<path class="st5" d="M231.4,356.1c0,0-47-172.3-111.6-220.8c0,0,15.8,59.4,13.7,107.4c-0.8,18.6-17.1,32.7-35.7,30.7
	c-27-3-65.4-10.3-86.1-27.7C11.7,245.7,41.4,326.8,231.4,356.1"/>
<path class="st5" d="M73.3,232.8c0,14.6,11.5,26.5,25.7,26.5c14.2,0,25.7-11.8,25.7-26.5c0-14.6-11.5-26.4-25.7-26.4
	C84.8,206.3,73.3,218.2,73.3,232.8"/>
<g>
	<path class="st6" d="M279.8,311.6L279.8,311.6c3.8-7.1,5.9-15.2,5.8-23.8c-0.4-27-22.5-48.5-49.5-48.2c-27,0.4-48.5,22.5-48.2,49.5
		c0.1,8.6,2.5,16.7,6.5,23.6h0l0.1,0.1c1,1.8,2.2,3.5,3.4,5.2l40.1,60.3l38.4-61.4c1.2-1.7,2.3-3.4,3.3-5.3L279.8,311.6z"/>
	<path class="st5" d="M273,287c0.3,20-15.7,36.3-35.6,36.6c-20,0.3-36.3-15.7-36.6-35.6c-0.3-20,15.7-36.3,35.6-36.6
		C256.3,251.1,272.7,267,273,287z"/>
	<path class="st2" d="M263.7,287.1c0.2,14.9-11.7,27.1-26.5,27.3c-14.9,0.2-27.1-11.7-27.3-26.5c-0.2-14.9,11.7-27.1,26.5-27.3
		C251.3,260.4,263.5,272.3,263.7,287.1z"/>
</g>
<rect x="-75.3" y="453.1" class="st7" width="156" height="156.5"/>
<g>
	<defs>
		<rect id="SVGID_00000007393767121720855020000014286603256489077914_" x="24.6" y="545.4" width="426" height="61.7"/>
	</defs>
	<clipPath id="SVGID_00000178907341892174812480000013320417745712708523_">
		<use xlink:href="#SVGID_00000007393767121720855020000014286603256489077914_"  style="overflow:visible;"/>
	</clipPath>
	<g style="clip-path:url(#SVGID_00000178907341892174812480000013320417745712708523_);">
		<path class="st6" d="M28.2,606.1c26.2-13.5,56.8-16.7,85.9-17.4c31.3-0.8,62.5,1.2,93.7,4.1c31.5,2.9,62.9,6.6,94.5,8.8
			c15.7,1.1,31.5,1.7,47.3,1.8c14.8,0.1,29.8,0.2,44.6-1.6c14.9-1.8,29.8-6,41.2-16.2c10-9,17.2-22.7,14.5-36.3
			c-1.2-5.7-10.1-4.4-10.1,1.3c0.1,12.1-4.6,22.4-14,30c-10.5,8.6-24.6,11.7-37.7,13.3c-29.8,3.5-60.1,2.3-90,0.3
			c-60.7-4.3-121.1-14.2-182.1-12c-31,1-62.4,4.5-89.5,20.9C24.4,604.2,26.1,607.2,28.2,606.1z"/>
	</g>
</g>
<path class="st6" d="M39.9,586.3c26.6-9.7,54.1-12,82.2-12.2c1.5,0,2.1-2.6,0.4-2.8c-28.1-4.2-57.4,2.5-83.1,13.8
	C38.8,585.4,39.2,586.6,39.9,586.3z"/>
<path class="st6" d="M424.8,601.9c10.3-1.4,19.7-6.3,26.9-13.7c3.7-3.7,6.8-8,8.9-12.7c1.8-3.7,5.1-10.4,2.4-14.2
	c-1.2-1.8-3.4-2-5-0.6c-3,2.6-2.6,8.5-3.8,12.2c-1.4,4.3-3.5,8.3-6.1,11.9c-5.8,7.9-14.1,13.7-23.5,16.3
	C424,601.1,424.2,602,424.8,601.9z"/>
<g>
	<defs>
		<rect id="SVGID_00000060728594303438828040000015400361738800815770_" x="350.2" y="555.2" width="26.5" height="36.2"/>
	</defs>
	<clipPath id="SVGID_00000108287327635262035740000009450335654637249196_">
		<use xlink:href="#SVGID_00000060728594303438828040000015400361738800815770_"  style="overflow:visible;"/>
	</clipPath>
	<g style="clip-path:url(#SVGID_00000108287327635262035740000009450335654637249196_);">
		<path class="st6" d="M356.2,588.1c-0.8,0.9-1.6,1.8-2.1,2.9c-0.2,0.4-0.8,0.5-1.2,0.2c-0.7-0.6-1.4-1.2-2.1-1.8
			c-0.5-0.5-0.5-1.1-0.4-1.8c0.1-0.6,0.3-1.1,0.7-1.5c0.2-0.2,0.4-0.4,0.5-0.7c0.9-2.3,2.2-4.4,3.4-6.6c2.6-4.5,5.2-9,7.4-13.6
			c0.6-1.2,1.1-2.5,1.4-3.9c0.1-0.4,0.2-0.7,0-1.2c-0.7,0-1.3,0.3-1.9,0.7c-2.6,1.7-4.7,3.8-6.2,6.5c-0.2,0.4-0.3,0.9-0.5,1.4
			c-0.1,0.2-0.2,0.4-0.4,0.5c-0.5,0.1-1,0.2-1.5-0.1c-0.8-0.6-1.6-1.2-2.3-1.8c-0.6-0.5-0.7-1.2-0.3-1.9c0.6-1.1,1.1-2.2,1.8-3.2
			c1.7-2.5,4-4.5,6.8-5.8c1.1-0.6,2.3-0.9,3.6-0.9c2.2-0.1,3.8,1.4,4,3.4c0.1,0.9,0.2,1.9,0,2.8c-0.2,0.7-0.4,1.5-0.7,2.2
			c-0.3,0.7-0.6,1.3-0.9,2c-0.1,0.3-0.3,0.5-0.5,0.7c0,0-0.1,0.1-0.1,0.1c-0.1,1.2-1,2-1.4,3c0,0,0,0,0,0.1
			c-0.1,0.3-0.5-0.1-0.5,0.4c0,0.2-0.2,0.5-0.3,0.7c-0.1,0.2-0.3,0.4-0.4,0.6c-0.3,0.5-0.4,1-0.9,1.4c0,0.7-0.7,1.1-0.9,1.6
			c-0.2,0.6-0.6,0.9-0.9,1.5c-0.2,0.3-0.3,0.6-0.5,0.9c-0.1,0.2-0.2,0.4-0.3,0.6c-0.2,0.4-0.4,0.8-0.6,1.1c-0.3,0.5-0.6,0.9-0.9,1.4
			c-0.2,0.4-0.4,0.8-0.6,1.2c0,0.1,0,0.2,0,0.3c0.2-0.1,0.3-0.1,0.4-0.1c2.7-1.6,5.6-2.8,8.6-3.6c0.2-0.1,0.4-0.1,0.7-0.2
			c0-0.2,0.1-0.3,0.1-0.5c0-2.3,0.7-4.4,1.6-6.5c0.9-1.9,2-3.7,3.2-5.5c0.1-0.1,0.2-0.2,0.2-0.3c0.5-0.6,0.7-0.6,1.3-0.2
			c0.1,0.1,0.3,0.2,0.4,0.2c1.8,0,3.1,1.2,3.1,3c0,1.1-0.2,2.1-0.4,3.2c-0.3,1.7-1,3.3-1.9,4.8c-0.5,0.9-1,1.8-1.5,2.7
			c-0.3,0.5-0.6,0.9-0.9,1.4c-0.7,1.1-1.8,1.3-3,1.5c-0.2,0-0.5-0.1-0.7-0.2c-0.3-0.2-0.7-0.2-1-0.1c-1,0.3-2,0.5-3,0.8
			c-0.5,0.2-1,0.4-1.5,0.7c-0.1,0-0.2,0.1-0.2,0.1c-0.3,0.8-1,0.8-1.7,0.7c-0.1,0-0.1,0-0.2,0c-0.1,0.2-0.3,0.3-0.5,0.5
			c-0.2,0.1-0.4,0.1-0.4,0.5c0,0.1-0.3,0.3-0.5,0.5c-1,0.7-1.9,1.4-2.9,2.1c-0.1,0.1-0.2,0.2-0.3,0.4c0.5,0.2,0.7-0.3,1-0.4
			c0.3,0.2,0.3,0.4,0.1,0.7C356.7,587.5,356.4,587.8,356.2,588.1z M371.9,574.3c0.7-1.5,1.4-3,1.7-4.6c0.1-0.7,0.2-1.3,0-2
			c0-0.1-0.1-0.2-0.2-0.5c-0.1,1.1-0.7,1.8-1.1,2.7c-0.7,1.3-1.3,2.7-2,4.1c-0.2,0.5-0.5,1-0.7,1.5c-0.2,0.5-0.3,0.9-0.2,1.4
			c1,0.2,1,0.2,1.4-0.5C371.2,575.7,371.5,575,371.9,574.3z"/>
	</g>
</g>
<g>
	<defs>
		<rect id="SVGID_00000179640928820401097370000015250560426133681041_" x="373.5" y="551.5" width="22.8" height="30.9"/>
	</defs>
	<clipPath id="SVGID_00000027581330702874154530000002996455580792748435_">
		<use xlink:href="#SVGID_00000179640928820401097370000015250560426133681041_"  style="overflow:visible;"/>
	</clipPath>
	<g style="clip-path:url(#SVGID_00000027581330702874154530000002996455580792748435_);">
		<path class="st6" d="M382.2,568c1.7-2.1,3.3-4.2,4.9-6.3c1-1.3,1.9-2.8,2.7-4.3c0.2-0.5,0.4-1,0.4-1.6c-0.8,0-1.4,0.2-2,0.5
			c-2.3,1-4.4,2.4-6.1,4.3c-0.4,0.5-0.8,1.1-1.1,1.7c-0.2,0.4-0.4,0.6-0.9,0.6c-0.6,0-1.1-0.1-1.6-0.5c-0.5-0.4-1-0.8-1.5-1.2
			c-0.7-0.6-0.8-1.2-0.3-2c2.4-3.6,5.7-5.9,9.8-7.1c1.4-0.4,2.8-0.6,4.2-0.1c1.4,0.4,2.5,1.7,2.5,3.2c0.1,1.5-0.3,3-1.2,4.2
			c-0.3,0.4-0.5,0.9-0.8,1.3c-0.2,0.3-0.7,0.6-0.8,0.9c-0.1,0.4-0.4,0.7-0.6,1c-0.1,0.2-0.4,0.3-0.6,0.5c-0.1,0.4-0.2,0.8-0.7,0.9
			c-0.1,0-0.2,0.1-0.3,0.2c-0.6,0.7-1.3,1.4-1.7,2.2c-0.4,0.6-1.1,1-1.3,1.7c-0.1,0.2-0.4,0.3-0.6,0.6c-0.5,0.6-1.1,1.2-1.6,1.9
			c-0.4,0.6-0.9,1-1.3,1.6c-0.3,0.4-0.5,0.8-0.9,1.2c0.3,0,0.4,0,0.5,0c0.4-0.1,0.8-0.3,1.2-0.5c3.1-1.2,6.2-1.9,9.5-2.3
			c0.7-0.1,1.3-0.1,2,0c0.8,0.1,1.5,0.5,2.2,0.9c0,0.1,0,0.2-0.1,0.2c-0.6,0.4-1.1,0.8-1.7,1.1c-0.3,0.2-0.7,0.4-1.1,0.5
			c-1.4,0.3-2.9,0.5-4.3,0.7c-0.8,0.1-1.5,0.3-2.2,0.6c-0.2,0.1-0.3,0.2-0.4,0.3c-0.3,0.1-0.6,0.4-0.8,0.3c-0.8-0.3-1.3,0.1-1.7,0.6
			c-0.4,0.4-0.7,0.5-1.1,0.4c-0.2,0.2-0.4,0.4-0.6,0.5c-0.6,0.4-1.3,0.7-1.9,1.1c-0.1,0.1-0.2,0.2-0.3,0.3c0.5,0.2,0.6-0.3,1-0.3
			c0.2,0.1,0.3,0.3,0.1,0.5c-0.3,0.3-0.6,0.5-0.8,0.8c-0.8,0.7-1.5,1.4-2.3,2.2c-0.5,0.5-0.9,0.5-1.4,0.1c-0.5-0.5-1.1-0.9-1.6-1.4
			c-0.5-0.5-0.6-1.1-0.4-1.8c0.2-0.4,0.5-0.8,0.8-1.1c0.3-0.4,0.6-0.8,0.9-1.1c0.7-1,1.5-2.1,2.2-3.1
			C379.6,571.1,380.9,569.6,382.2,568z"/>
	</g>
</g>
<g>
	<defs>
		<rect id="SVGID_00000131341200312033896080000007497219141447324329_" x="394.2" y="554.1" width="14.8" height="22.8"/>
	</defs>
	<clipPath id="SVGID_00000155847025808313786370000003623087121249083034_">
		<use xlink:href="#SVGID_00000131341200312033896080000007497219141447324329_"  style="overflow:visible;"/>
	</clipPath>
	<g style="clip-path:url(#SVGID_00000155847025808313786370000003623087121249083034_);">
		<path class="st6" d="M403.5,565c0.4,0.3,0.7,0.5,1,0.7c0.3,0.3,0.6,0.6,0.8,1c0.1,0.3,0.2,0.5,0.4,0.7c0.4,0.5,0.7,1,0.6,1.7
			c0.3,0.4,0,0.7-0.1,1c-0.2,0.4-0.4,0.8-0.9,0.9c-0.2,0.1-0.5,0-0.7,0.2c-0.1,0.1-0.3,0.1-0.3,0.2c-0.4,0.5-0.8,0.9-1.2,1.4
			c-0.6,0.6-1.2,1.2-1.8,1.8c-1,0.9-2.2,1.5-3.4,2c-0.9,0.4-1.8,0.4-2.8,0.2c-0.2-0.1-0.5-0.1-0.4-0.5c0.2,0,0.3,0.1,0.4,0.1
			c0.4,0.2,0.7,0.1,1,0c1.1-0.4,2.2-1,3.2-1.6c0.5-0.3,0.9-0.6,1.2-1c1-1.1,2-2.2,2.8-3.6c0.3-0.6,0.6-1.2,0.7-1.9
			c0.1-0.6-0.3-1-0.9-0.9c-0.3,0-0.7,0.1-1,0.2c-1.3,0.4-2.6,0.8-3.7,1.5c-0.3,0.2-0.8,0.3-1.2,0.3c-0.6,0-1.1-0.5-1.3-1.2
			c-0.1-0.3-0.1-0.6-0.5-0.8c-0.3-0.1-0.3-0.4-0.2-0.6c0.1-0.2,0.3-0.5,0.5-0.6c0.9-0.7,1.9-1.4,2.8-2.1c0.6-0.5,1.3-1,1.9-1.5
			c1.6-1.3,3.2-2.7,4.5-4.3c0.1-0.2,0.3-0.3,0.4-0.5c0,0,0-0.1,0-0.2c-0.3,0-0.5,0.1-0.7,0.1c-2.4,0.6-4.6,1.8-6.3,3.7
			c-0.1,0.1-0.2,0.2-0.3,0.3c-0.5,0.6-0.6,0.6-1.2,0.4c-0.5-0.2-0.9-0.5-1.4-0.8c-0.3-0.2-0.5-0.5-0.7-0.8c-0.4-0.5-0.4-0.8,0-1.4
			c0.9-1.1,2-2,3.2-2.7c1.4-0.9,2.9-1.5,4.6-1.7c0.6-0.1,1.2-0.2,1.8-0.3c1.8-0.3,3.2,0.8,3.8,2.1c0.3,0.7,0.6,1.4,0.4,2.2
			c-0.6,0.2-0.9,0.8-1.3,1.2c-0.6,0.8-1.3,1.3-2,2c-0.2,0.2-0.5,0.4-0.7,0.6c-0.3,0.2-0.5,0.5-0.8,0.5c-0.4,0.6-1.1,0.7-1.6,1.1
			c-0.2,0.2-0.4,0.3-0.7,0.6C402.2,564.7,402.8,564.8,403.5,565z"/>
	</g>
</g>
<path class="st6" d="M397.5,578.5c-0.1,0.1-0.2,0.2-0.3,0.2c-0.7-0.1-1.5,0-2.2-0.2c-0.4-0.1-0.7-0.4-1-0.9c0.2,0.1,0.4,0,0.5,0.1
	c0.3,0.4,0.6,0.4,1,0.4c0.2,0.1,0.5,0.2,0.6,0c0.1-0.1,0.1-0.3,0.2-0.6c1.5,0,2.9-0.6,4.2-1.3c1.3-0.7,2.4-1.5,3.3-2.7
	c0.3,0.1,0.3,0.4,0.2,0.5c-0.4,0.5-0.8,1-1.3,1.5c-0.6,0.6-1.3,1.1-2,1.7c-0.3,0.2-0.7,0.5-1,0.5C399,577.8,398.3,578.2,397.5,578.5
	z"/>
<g>
	<g transform="translate(336.757107, 383.338204)">
		<g>
			<path class="st6" d="M-290.8,127.1c1.5,0,3-0.4,4.3-1.2c1.3-0.8,2.6-1.9,3.8-3.3c1.2-1.4,2.3-3.1,3.4-5c1.1-1.9,2.1-4,3-6.3
				c-2.3-7.5-4.6-14.3-6.9-20.2c-2.3-6-4.6-11-6.8-15.2c-1.2-2.2-2.4-3.9-3.6-5c-1.2-1.1-2.4-1.7-3.5-1.7c-0.7,0-1.3,0.1-1.8,0.4
				c-0.5,0.3-1,0.6-1.4,0.9l-0.8-1c0.4-0.4,1-0.9,1.6-1.3c0.6-0.5,1.4-0.9,2.3-1.3c0.9-0.4,1.8-0.7,2.9-1c1.1-0.3,2.3-0.4,3.6-0.4
				c0.6,0,1.4,0.1,2.2,0.2c0.8,0.1,1.6,0.3,2.4,0.7c0.8,0.3,1.6,0.8,2.5,1.4c0.8,0.6,1.6,1.4,2.3,2.4c1.6,2.3,3.3,5.5,5.1,9.6
				c1.8,4.1,3.7,9.1,5.7,15c0.7-1.9,1.3-3.9,1.9-5.8c0.6-1.9,1.3-3.8,1.9-5.7c0.7-1.8,1.3-3.6,2-5.3c0.7-1.7,1.4-3.3,2.1-4.8
				c0.7-1.6,1.5-3,2.2-4.2c0.8-1.2,1.6-2.2,2.5-3c0.9-0.8,1.9-1.4,3.1-1.9c1.1-0.4,2.4-0.6,3.9-0.6c1.1,0,2,0.2,2.7,0.7
				c0.7,0.5,1,1.2,1,2.1c0,0.8-0.1,1.5-0.4,2.1c-0.3,0.5-0.7,0.8-1.1,0.8c-0.4,0-0.7-0.2-0.9-0.5c-0.2-0.3-0.4-0.6-0.7-1
				c-0.2-0.3-0.5-0.7-0.8-1c-0.3-0.3-0.7-0.5-1.3-0.5c-1.3,0-2.5,0.6-3.5,1.8c-1.1,1.2-2.1,2.8-3,4.8c-1,2-1.9,4.4-2.8,7
				c-0.9,2.7-1.8,5.5-2.7,8.5c-0.9,3-1.8,6.1-2.8,9.3c-1,3.2-2,6.3-3.2,9.3c-1.1,3-2.4,5.9-3.7,8.5c-1.4,2.7-2.8,5-4.5,7
				c-1.7,2-3.5,3.6-5.5,4.8c-2,1.2-4.2,1.8-6.7,1.8c-1.1,0-2.1-0.1-3.1-0.3c-1-0.2-1.9-0.4-2.6-0.7c-0.8-0.3-1.4-0.7-2-1.1
				c-0.5-0.4-0.8-0.9-0.9-1.4c0-0.4,0-0.8,0.1-1.2c0.1-0.4,0.2-0.7,0.4-1.1c0.2-0.3,0.4-0.6,0.7-0.8c0.3-0.2,0.6-0.3,1-0.3
				c0.2,0,0.4,0.1,0.6,0.3c0.2,0.2,0.4,0.5,0.6,0.8c0.2,0.3,0.5,0.7,0.8,1.1c0.3,0.4,0.6,0.8,1.1,1.1c0.4,0.3,0.9,0.6,1.5,0.9
				C-292.3,127-291.6,127.1-290.8,127.1z"/>
		</g>
	</g>
	<g transform="translate(402.43442, 383.338204)">
		<g>
			<path class="st6" d="M-259,107c0,0.2,0,0.4,0,0.6c0,0.2,0.1,0.4,0.2,0.6c0.1,0.2,0.2,0.4,0.4,0.5c0.2,0.1,0.4,0.2,0.7,0.2
				c0.4,0,0.7-0.1,1.1-0.4c0.3-0.3,0.6-0.6,0.9-0.9l0.8,0.7c-0.3,0.4-0.7,0.9-1.2,1.5c-0.5,0.5-1,1-1.7,1.5
				c-0.7,0.5-1.4,0.9-2.3,1.2c-0.8,0.3-1.8,0.5-2.9,0.5c-0.9,0-1.7-0.1-2.4-0.4c-0.7-0.2-1.3-0.6-1.7-1c-0.5-0.4-0.8-0.9-1.1-1.4
				c-0.2-0.6-0.3-1.1-0.3-1.8V107c-1,1.1-2.1,2.1-3.3,3c-0.5,0.4-1,0.7-1.6,1.1c-0.6,0.4-1.2,0.7-1.8,1c-0.6,0.3-1.2,0.5-1.9,0.7
				c-0.6,0.2-1.3,0.3-1.9,0.3c-1.3,0-2.3-0.2-3.2-0.7c-0.9-0.5-1.6-1-2.1-1.8c-0.5-0.7-0.9-1.6-1.2-2.5c-0.3-0.9-0.4-1.9-0.4-2.8
				V85.9c0-0.2,0-0.4,0-0.6c0-0.2-0.1-0.4-0.2-0.6c-0.1-0.2-0.2-0.4-0.4-0.5c-0.2-0.1-0.4-0.2-0.7-0.2c-0.4,0-0.7,0.1-1.1,0.4
				c-0.3,0.3-0.6,0.6-0.8,0.8l-0.8-0.6c0.3-0.4,0.7-0.9,1.2-1.5c0.5-0.5,1-1.1,1.7-1.5c0.7-0.5,1.4-0.9,2.3-1.2
				c0.9-0.3,1.8-0.5,2.9-0.5c0.9,0,1.7,0.1,2.4,0.4c0.7,0.2,1.3,0.6,1.7,1c0.5,0.4,0.8,0.9,1,1.4c0.2,0.6,0.4,1.1,0.4,1.8v21
				c0,0.3,0,0.6,0.1,0.9c0.1,0.3,0.2,0.6,0.4,0.8c0.2,0.3,0.4,0.5,0.7,0.6c0.3,0.2,0.6,0.2,1,0.2c0.6,0,1.2-0.2,1.8-0.5
				c0.6-0.3,1.2-0.7,1.7-1.1c0.5-0.4,0.9-0.9,1.3-1.3c0.4-0.4,0.6-0.7,0.8-0.9V85.9c0-0.2,0-0.4,0-0.6c0-0.2-0.1-0.4-0.2-0.6
				c-0.1-0.2-0.2-0.4-0.4-0.5c-0.2-0.1-0.4-0.2-0.7-0.2c-0.4,0-0.7,0.1-1.1,0.4c-0.3,0.3-0.6,0.6-0.8,0.8l-0.8-0.6
				c0.3-0.4,0.7-0.9,1.2-1.5c0.5-0.5,1-1.1,1.7-1.5c0.7-0.5,1.4-0.9,2.3-1.2c0.9-0.3,1.8-0.5,2.9-0.5c0.9,0,1.7,0.1,2.4,0.4
				c0.7,0.2,1.3,0.6,1.7,1c0.5,0.4,0.8,0.9,1,1.4c0.2,0.6,0.4,1.1,0.4,1.8V107z"/>
		</g>
	</g>
	<g transform="translate(435.273077, 383.338204)">
		<g>
			<path class="st6" d="M-273.4,82.6v23.2c0,1.1,0.2,1.9,0.6,2.3c0.4,0.4,1,0.6,1.7,0.6c0.6,0,1.1-0.2,1.5-0.5
				c0.4-0.3,0.8-0.7,1.1-1.1c0.4-0.4,0.7-0.9,1-1.5l1,0.4c-0.3,0.7-0.7,1.4-1.1,2.2c-0.4,0.8-1,1.5-1.7,2.2
				c-0.7,0.7-1.6,1.3-2.7,1.7c-1.1,0.5-2.4,0.7-4.1,0.7c-0.9,0-1.8-0.1-2.7-0.4c-0.8-0.3-1.6-0.7-2.3-1.3c-0.7-0.6-1.2-1.3-1.6-2.2
				c-0.4-0.9-0.6-1.9-0.6-3.2V82.6h-3.5v-2.3c0.6,0,1.4-0.2,2.4-0.5c1.1-0.3,2.1-0.8,3.2-1.5c1.1-0.7,2.1-1.7,3.1-2.9
				c0.9-1.2,1.6-2.7,2-4.4h2.5v9.3h5.1c1.7,0,2.5-0.3,2.5-0.8c0-0.2-0.1-0.3-0.3-0.4c-0.2-0.1-0.4-0.2-0.7-0.3
				c-0.3-0.1-0.5-0.3-0.7-0.5c-0.2-0.2-0.3-0.6-0.3-1c0-0.6,0.2-1,0.5-1.4c0.4-0.3,0.9-0.5,1.4-0.5c0.4,0,0.7,0.1,1,0.2
				c0.3,0.2,0.5,0.4,0.7,0.6c0.2,0.3,0.3,0.6,0.4,0.9c0.1,0.3,0.2,0.7,0.2,1c0,1.4-0.4,2.4-1.2,3.2c-0.8,0.8-2,1.2-3.8,1.2H-273.4z"
				/>
		</g>
	</g>
	<g transform="translate(455.201549, 383.338204)">
		<g>
			<path class="st6" d="M-272.2,85.9c0.8-1.1,1.7-2.1,2.6-3c0.4-0.4,0.8-0.8,1.3-1.1c0.5-0.3,1-0.7,1.6-1c0.6-0.3,1.1-0.5,1.7-0.7
				c0.6-0.2,1.3-0.3,1.9-0.3c1.4,0,2.7,0.3,3.8,0.8c1.1,0.5,2,1.5,2.8,2.7c0.8,1.3,1.3,3,1.7,5.1c0.4,2.1,0.6,4.7,0.6,7.8
				c0,3-0.3,5.7-0.8,7.9c-0.5,2.2-1.3,4.1-2.1,5.7c-0.9,1.6-1.9,2.9-3,3.8c-1.1,1-2.2,1.8-3.4,2.3c-1.1,0.6-2.2,1-3.3,1.2
				c-1,0.2-1.9,0.3-2.7,0.4l-0.3-1.3c0.9-0.2,1.8-0.7,2.5-1.3c0.7-0.6,1.4-1.6,1.9-3.1c0.5-1.4,0.9-3.4,1.2-5.8
				c0.3-2.4,0.4-5.6,0.4-9.4c0-2.6-0.1-4.7-0.4-6.3c-0.2-1.6-0.6-2.8-0.9-3.6c-0.4-0.8-0.8-1.4-1.3-1.6c-0.5-0.3-1-0.4-1.5-0.4
				c-0.6,0-1.2,0.2-1.6,0.5c-0.5,0.3-0.9,0.7-1.2,1.1c-0.3,0.4-0.6,0.8-0.9,1.3c-0.2,0.4-0.4,0.7-0.6,1v21c0,0.3,0,0.6-0.1,1
				c-0.1,0.4-0.3,0.8-0.6,1.1c-0.3,0.3-0.8,0.6-1.5,0.9c-0.6,0.2-1.5,0.4-2.6,0.4c-1.1,0-2-0.1-2.6-0.4c-0.6-0.3-1.1-0.6-1.5-0.9
				c-0.3-0.3-0.5-0.7-0.6-1.1c-0.1-0.4-0.1-0.7-0.1-0.9V69.2c0-0.6-0.1-1.1-0.4-1.6c-0.3-0.5-0.8-0.7-1.4-0.7
				c-0.4,0-0.7,0.1-0.9,0.2c-0.3,0.1-0.5,0.3-0.8,0.5l-0.6-0.7c0.5-0.4,1-0.8,1.6-1.2c0.6-0.4,1.2-0.7,1.9-1
				c0.7-0.3,1.4-0.5,2.2-0.7c0.8-0.2,1.6-0.3,2.5-0.3c1.4,0,2.4,0.2,3.2,0.5c0.8,0.4,1.3,0.8,1.7,1.4c0.3,0.5,0.6,1.1,0.6,1.7
				c0.1,0.6,0.1,1.1,0.1,1.6V85.9z"/>
		</g>
	</g>
	<g transform="translate(486.740523, 383.338204)">
		<g>
			<path class="st6" d="M-250.7,101.2L-262,78.7l-0.4,7.6c-0.1,2.2-0.3,4.4-0.3,6.6c-0.1,2.2-0.3,4.2-0.5,6.2
				c-0.3,2-0.6,3.8-1.2,5.5c-0.5,1.7-1.3,3.1-2.3,4.3c-1,1.2-2.3,2.2-4,2.9c-1.6,0.7-3.6,1-6.1,1c-1.1,0-2.1-0.1-3.1-0.3
				c-1-0.2-1.9-0.4-2.6-0.7c-0.7-0.3-1.3-0.7-1.8-1.1c-0.5-0.4-0.7-0.9-0.7-1.4c0-0.4,0.1-0.8,0.2-1.2c0.1-0.4,0.3-0.7,0.5-1.1
				c0.2-0.3,0.5-0.6,0.8-0.8c0.3-0.2,0.6-0.3,1-0.3c0.2,0,0.4,0.1,0.6,0.3c0.2,0.2,0.4,0.5,0.6,0.9c0.2,0.3,0.4,0.7,0.6,1.1
				c0.2,0.4,0.5,0.8,0.9,1.1c0.4,0.3,0.9,0.6,1.4,0.8c0.5,0.2,1.2,0.3,2,0.3c1.6,0,3-0.3,4.1-0.8c1.1-0.6,2-1.4,2.7-2.4
				c0.7-1.1,1.3-2.3,1.6-3.8c0.4-1.5,0.7-3.2,0.8-5c0.1-1.1,0.2-2.1,0.3-3c0.1-1,0.2-1.9,0.2-2.9c0.1-1,0.2-1.9,0.2-2.9
				c0.1-1,0.2-2,0.2-3.2c0.1-1.6,0.2-3.1,0.3-4.6c0.1-1.5,0.1-2.8,0.2-4.1c0.1-1.3,0.1-2.4,0.1-3.4c0-1,0.1-1.9,0.1-2.6
				c-0.4-0.7-0.7-1.3-0.9-1.8c-0.3-0.5-0.6-0.8-0.8-1c-0.3-0.2-0.6-0.4-1-0.5c-0.4-0.1-0.8-0.1-1.3-0.1c-0.4,0-0.9,0.1-1.6,0.2
				c-0.6,0.1-1.3,0.4-1.9,0.7c-0.7,0.3-1.3,0.7-2,1.1c-0.7,0.4-1.2,0.9-1.8,1.5c-0.5,0.6-0.9,1.2-1.3,1.8c-0.3,0.7-0.5,1.4-0.5,2.2
				c0,0.7,0.1,1.2,0.3,1.6c0.2,0.4,0.4,0.7,0.6,0.9c0.2,0.2,0.5,0.3,0.7,0.4c0.2,0,0.4,0.1,0.5,0.1c0.5,0,1-0.1,1.3-0.3
				c0.3-0.2,0.6-0.4,0.9-0.6c0.3-0.2,0.5-0.4,0.8-0.6c0.2-0.2,0.5-0.3,0.8-0.3c0.2,0,0.5,0.1,0.8,0.2c0.3,0.1,0.5,0.3,0.8,0.5
				c0.2,0.3,0.5,0.6,0.6,1c0.2,0.4,0.3,0.9,0.3,1.5c0,0.8-0.2,1.6-0.5,2.2c-0.3,0.6-0.7,1.1-1.3,1.5c-0.5,0.4-1.1,0.7-1.7,0.9
				c-0.7,0.2-1.3,0.3-2,0.3c-1,0-1.9-0.2-2.7-0.5c-0.8-0.3-1.5-0.8-2.1-1.4c-0.6-0.6-1-1.3-1.3-2.1c-0.3-0.8-0.4-1.7-0.4-2.6
				c0-2.2,0.5-4.1,1.5-5.7c1-1.6,2.3-3,4-4.1c1.6-1.1,3.5-1.9,5.6-2.4c2.1-0.5,4.2-0.8,6.3-0.8c1.7,0,3.1,0.2,4.3,0.5
				c1.2,0.3,2.1,0.8,2.9,1.4c0.8,0.6,1.4,1.3,1.9,2c0.5,0.8,1,1.6,1.4,2.4l8.3,16.8c2.1-4.2,4.1-8,5.9-11.4c1.8-3.4,3.4-6.3,4.9-8.9
				c1.5-2.6,2.9-4.7,4.2-6.5c1.3-1.8,2.6-3.3,3.8-4.4c1.2-1.1,2.4-2,3.6-2.5c1.2-0.5,2.5-0.8,3.8-0.8c1.1,0,2,0.2,2.7,0.7
				c0.7,0.5,1,1.2,1,2.1c0,0.8-0.1,1.5-0.4,2.1c-0.3,0.5-0.7,0.8-1.1,0.8c-0.4,0-0.7-0.1-0.9-0.4c-0.2-0.3-0.4-0.6-0.6-1
				c-0.2-0.4-0.4-0.7-0.7-1c-0.3-0.3-0.7-0.5-1.3-0.5c-0.3,0-0.7,0.1-1.2,0.3c-0.5,0.2-1,0.5-1.5,0.8c-0.5,0.4-1,0.8-1.5,1.4
				c-0.5,0.6-0.9,1.2-1.3,2c-0.4,0.7-0.7,1.6-0.9,2.6c-0.2,1-0.3,2-0.2,3.2c0.1,1.3,0.2,2.9,0.3,4.6c0.1,1.8,0.3,3.7,0.5,5.7
				c0.2,2,0.4,4.1,0.6,6.3c0.2,2.2,0.4,4.3,0.6,6.4c0.2,2.1,0.4,4.1,0.6,6c0.2,1.9,0.4,3.7,0.6,5.2c0.2,1.6,0.3,2.9,0.5,4
				c0.1,1.1,0.3,1.8,0.3,2.2c0.1,0.6,0.3,1.1,0.5,1.5c0.2,0.4,0.6,0.5,1.1,0.5c0.6,0,1.1-0.1,1.6-0.3c0.5-0.2,1-0.4,1.4-0.6l0.5,1.2
				c-0.4,0.3-0.8,0.6-1.4,0.9c-0.6,0.3-1.2,0.7-2,1c-0.7,0.3-1.6,0.6-2.4,0.8c-0.9,0.2-1.8,0.3-2.9,0.3c-1.4,0-2.6-0.2-3.4-0.5
				c-0.8-0.4-1.5-0.8-1.9-1.4c-0.4-0.5-0.7-1.1-0.9-1.7c-0.2-0.6-0.3-1.1-0.4-1.6c-0.2-1.1-0.4-2.4-0.6-3.9
				c-0.2-1.5-0.4-3.1-0.6-4.8c-0.2-1.7-0.4-3.5-0.6-5.3c-0.2-1.8-0.4-3.6-0.5-5.4c-0.1-1.8-0.3-3.4-0.4-5c-0.1-1.5-0.2-2.9-0.3-4
				c-0.6,1-1.2,2-1.7,3c-0.5,1-1,1.9-1.5,2.9c-0.5,1-1,2-1.5,3.1c-0.5,1.1-1.1,2.3-1.6,3.5c-0.6,1.3-1.2,2.7-1.9,4.2
				c-0.7,1.5-1.4,3.2-2.2,5.1H-250.7z"/>
		</g>
	</g>
	<g transform="translate(546.063831, 383.338204)">
		<g>
			<path class="st6" d="M-259.8,96.2c0-0.5-0.2-0.9-0.5-1.2c-0.3-0.3-0.8-0.4-1.3-0.4c-0.7,0-1.4,0.2-2.1,0.5
				c-0.7,0.3-1.2,0.8-1.7,1.5c-0.5,0.6-0.9,1.4-1.2,2.4c-0.3,1-0.4,2.1-0.4,3.3c0,1.2,0.1,2.2,0.3,3c0.2,0.8,0.4,1.4,0.7,1.9
				c0.3,0.5,0.7,0.8,1.1,1c0.4,0.2,0.8,0.3,1.3,0.3c0.5,0,1.1-0.1,1.5-0.4c0.5-0.3,0.9-0.6,1.3-1.1c0.4-0.4,0.6-0.9,0.8-1.5
				c0.2-0.5,0.3-1.1,0.3-1.6V96.2z M-264.8,82.5c-0.7,0-1.4,0.1-2,0.3c-0.6,0.2-1.1,0.4-1.6,0.6c-0.4,0.3-0.8,0.5-1,0.8
				c-0.3,0.3-0.4,0.6-0.4,0.8c0,0.3,0.2,0.5,0.5,0.7c0.3,0.1,0.7,0.3,1.1,0.5c0.4,0.2,0.8,0.4,1.1,0.7c0.3,0.3,0.5,0.8,0.5,1.5
				c0,0.4-0.1,0.8-0.3,1.2c-0.2,0.4-0.4,0.7-0.7,1c-0.3,0.3-0.6,0.5-1.1,0.7c-0.4,0.2-0.8,0.2-1.3,0.2c-1.2,0-2.1-0.4-2.9-1.2
				c-0.7-0.8-1.1-1.9-1.1-3.2c0-1.3,0.3-2.4,1-3.3c0.7-0.9,1.5-1.7,2.6-2.2c1.1-0.6,2.3-1,3.7-1.3c1.4-0.3,2.7-0.4,4.1-0.4
				c1.6,0,3.2,0.2,4.7,0.5c1.5,0.4,2.8,0.9,3.9,1.7c1.1,0.8,2.1,1.8,2.7,3c0.7,1.2,1,2.6,1,4.3v17.7c0,0.2,0,0.4,0,0.6
				c0,0.2,0.1,0.4,0.2,0.6c0.1,0.2,0.2,0.3,0.4,0.5c0.2,0.1,0.4,0.2,0.7,0.2c0.4,0,0.7-0.1,1.1-0.4c0.3-0.3,0.6-0.6,0.9-0.9l0.8,0.7
				c-0.3,0.4-0.7,0.9-1.1,1.4c-0.4,0.5-1,1-1.6,1.5c-0.6,0.5-1.4,0.8-2.2,1.2c-0.8,0.3-1.8,0.5-2.9,0.5c-1.3,0-2.5-0.4-3.5-1.2
				c-1-0.8-1.7-2-2-3.6c-0.7,0.9-1.4,1.6-2.1,2.3c-0.7,0.6-1.5,1.1-2.2,1.5c-0.8,0.4-1.5,0.6-2.3,0.8c-0.8,0.2-1.5,0.3-2.3,0.3
				c-1,0-2-0.2-2.9-0.5c-0.9-0.3-1.8-0.8-2.5-1.5c-0.7-0.7-1.3-1.6-1.8-2.6c-0.5-1.1-0.7-2.4-0.7-4c0-1.9,0.4-3.5,1.1-4.7
				c0.8-1.2,1.7-2.2,3-3.1c1.2-0.8,2.6-1.5,4.2-2.1c1.6-0.6,3.2-1.2,4.8-1.9c1.2-0.5,2.1-1.2,2.7-2.2c0.6-1,0.8-1.9,0.8-2.9
				c0-1.5-0.5-2.8-1.4-3.7C-262,82.9-263.3,82.5-264.8,82.5z"/>
		</g>
	</g>
	<g transform="translate(575.523312, 383.338204)">
		<g>
			<path class="st6" d="M-271,85.4c0-0.6-0.1-1.1-0.4-1.6c-0.3-0.5-0.8-0.7-1.4-0.7c-0.4,0-0.7,0.1-0.9,0.2
				c-0.3,0.1-0.5,0.3-0.8,0.5l-0.7-0.8c0.5-0.4,1-0.8,1.6-1.2c0.6-0.4,1.2-0.7,1.9-1c0.7-0.3,1.4-0.5,2.2-0.7
				c0.8-0.2,1.6-0.3,2.5-0.3c0.9,0,1.7,0.1,2.4,0.4c0.7,0.3,1.2,0.6,1.7,1.1c0.5,0.4,0.8,0.8,1,1.3c0.2,0.4,0.4,0.8,0.4,1.1
				c0.4-0.6,0.9-1.1,1.5-1.6c0.6-0.5,1.2-0.9,1.9-1.2c0.7-0.3,1.4-0.6,2.2-0.8c0.8-0.2,1.6-0.3,2.4-0.3c1.7,0,3.2,0.3,4.6,1
				c1.4,0.7,2.5,1.7,3.5,3.1c1,1.4,1.7,3,2.2,5.1c0.5,2,0.8,4.3,0.8,7c0,3.1-0.3,5.7-1,7.8c-0.6,2.1-1.5,3.9-2.5,5.3
				c-1,1.4-2.2,2.4-3.5,3c-1.3,0.6-2.7,0.9-4.1,0.9c-1.2,0-2.2-0.1-3-0.4c-0.9-0.2-1.6-0.5-2.2-0.8c-0.6-0.3-1.1-0.7-1.6-1
				c-0.4-0.3-0.8-0.6-1-0.9v15.3c0,0.3,0,0.6-0.1,1c-0.1,0.4-0.3,0.7-0.6,1.1c-0.3,0.3-0.8,0.6-1.4,0.9c-0.6,0.3-1.5,0.4-2.6,0.4
				c-1.1,0-2-0.1-2.6-0.4c-0.6-0.3-1.1-0.6-1.5-0.9c-0.3-0.4-0.5-0.7-0.6-1.1c-0.1-0.4-0.1-0.7-0.1-0.9V85.4z M-261.4,105.4
				c0,0.2,0.1,0.5,0.2,0.9c0.1,0.4,0.4,0.8,0.7,1.3c0.3,0.4,0.7,0.8,1.2,1.2c0.5,0.3,1.1,0.5,1.8,0.5c0.9,0,1.7-0.3,2.3-1
				c0.7-0.7,1.2-1.7,1.6-2.9c0.4-1.2,0.7-2.6,0.9-4.2c0.2-1.6,0.3-3.3,0.3-5.1c0-2.2-0.1-4.1-0.4-5.7c-0.2-1.5-0.6-2.8-1.1-3.8
				c-0.5-1-1-1.6-1.7-2.1c-0.6-0.4-1.4-0.6-2.1-0.6c-0.5,0-0.9,0.1-1.4,0.4c-0.5,0.3-0.9,0.6-1.3,1c-0.4,0.4-0.7,0.8-0.9,1.3
				c-0.2,0.5-0.3,0.9-0.3,1.4V105.4z"/>
		</g>
	</g>
	<g transform="translate(607.639922, 383.338204)">
		<g>
			<path class="st6" d="M-268.3,85.4c0-0.6-0.1-1.1-0.4-1.6c-0.3-0.5-0.8-0.7-1.4-0.7c-0.4,0-0.7,0.1-0.9,0.2
				c-0.3,0.1-0.5,0.3-0.8,0.5l-0.7-0.8c0.5-0.4,1-0.8,1.6-1.2c0.6-0.4,1.2-0.7,1.9-1c0.7-0.3,1.4-0.5,2.2-0.7
				c0.8-0.2,1.6-0.3,2.5-0.3c0.9,0,1.7,0.1,2.4,0.4c0.7,0.3,1.2,0.6,1.7,1.1c0.5,0.4,0.8,0.8,1,1.3c0.2,0.4,0.4,0.8,0.4,1.1
				c0.4-0.6,0.9-1.1,1.5-1.6c0.6-0.5,1.2-0.9,1.9-1.2c0.7-0.3,1.4-0.6,2.2-0.8c0.8-0.2,1.6-0.3,2.4-0.3c1.7,0,3.2,0.3,4.6,1
				c1.4,0.7,2.5,1.7,3.5,3.1c1,1.4,1.7,3,2.2,5.1c0.5,2,0.8,4.3,0.8,7c0,3.1-0.3,5.7-1,7.8c-0.6,2.1-1.5,3.9-2.5,5.3
				c-1,1.4-2.2,2.4-3.5,3c-1.3,0.6-2.7,0.9-4.1,0.9c-1.2,0-2.2-0.1-3-0.4c-0.9-0.2-1.6-0.5-2.2-0.8c-0.6-0.3-1.1-0.7-1.6-1
				c-0.4-0.3-0.8-0.6-1-0.9v15.3c0,0.3,0,0.6-0.1,1c-0.1,0.4-0.3,0.7-0.6,1.1c-0.3,0.3-0.8,0.6-1.4,0.9c-0.6,0.3-1.5,0.4-2.6,0.4
				c-1.1,0-2-0.1-2.6-0.4c-0.6-0.3-1.1-0.6-1.5-0.9c-0.3-0.4-0.5-0.7-0.6-1.1c-0.1-0.4-0.1-0.7-0.1-0.9V85.4z M-258.6,105.4
				c0,0.2,0.1,0.5,0.2,0.9c0.1,0.4,0.4,0.8,0.7,1.3c0.3,0.4,0.7,0.8,1.2,1.2c0.5,0.3,1.1,0.5,1.8,0.5c0.9,0,1.7-0.3,2.3-1
				c0.7-0.7,1.2-1.7,1.6-2.9c0.4-1.2,0.7-2.6,0.9-4.2c0.2-1.6,0.3-3.3,0.3-5.1c0-2.2-0.1-4.1-0.4-5.7c-0.2-1.5-0.6-2.8-1.1-3.8
				c-0.5-1-1-1.6-1.7-2.1c-0.6-0.4-1.4-0.6-2.1-0.6c-0.5,0-0.9,0.1-1.4,0.4c-0.5,0.3-0.9,0.6-1.3,1c-0.4,0.4-0.7,0.8-0.9,1.3
				c-0.2,0.5-0.3,0.9-0.3,1.4V105.4z"/>
		</g>
	</g>
	<g transform="translate(639.756533, 383.338204)">
		<g>
			<path class="st6" d="M-257.7,98.1c0,0.7,0.1,1.4,0.3,2.2c0.2,0.8,0.5,1.6,0.9,2.4c0.4,0.8,0.9,1.6,1.4,2.3
				c0.6,0.7,1.2,1.4,1.9,1.9c0.7,0.6,1.5,1,2.4,1.4c0.9,0.3,1.8,0.5,2.9,0.5c0.7,0,1.4-0.1,2-0.2c0.6-0.2,1.2-0.4,1.8-0.7
				c0.5-0.3,1.1-0.6,1.6-1c0.5-0.4,1-0.8,1.5-1.2l0.8,0.7c-0.5,0.6-1.1,1.4-1.9,2.1c-0.7,0.8-1.7,1.5-2.7,2.2
				c-1.1,0.7-2.3,1.2-3.7,1.7c-1.4,0.5-3,0.7-4.9,0.7c-1.8,0-3.6-0.3-5.3-1c-1.7-0.7-3.3-1.7-4.6-3c-1.3-1.3-2.4-3-3.2-4.9
				c-0.8-2-1.2-4.3-1.2-6.9c0-1.9,0.2-3.6,0.7-5.2c0.5-1.6,1.1-3,2-4.3c0.8-1.3,1.8-2.4,2.9-3.4c1.1-1,2.3-1.8,3.5-2.4
				c1.2-0.6,2.4-1.1,3.7-1.4c1.3-0.3,2.5-0.5,3.7-0.5c1.5,0,2.9,0.2,4,0.5c1.2,0.3,2.1,0.8,2.9,1.3c0.8,0.6,1.3,1.2,1.7,2
				c0.4,0.7,0.6,1.5,0.6,2.3c0,1-0.3,1.9-0.8,2.7c-0.6,0.8-1.3,1.5-2.3,2.1L-257.7,98.1z M-251.4,91.7c0.3-0.2,0.5-0.3,0.7-0.5
				c0.2-0.2,0.3-0.3,0.4-0.6c0.1-0.2,0.2-0.5,0.2-0.8c0.1-0.3,0.1-0.7,0.1-1.2c0-0.5-0.1-1.1-0.2-1.7c-0.1-0.6-0.3-1.2-0.6-1.8
				c-0.3-0.6-0.6-1-1-1.4c-0.4-0.4-0.9-0.6-1.5-0.6c-0.8,0-1.4,0.2-1.9,0.7c-0.5,0.4-1,1-1.3,1.7c-0.3,0.7-0.6,1.5-0.8,2.4
				c-0.2,0.9-0.3,1.8-0.5,2.7c-0.1,0.9-0.2,1.8-0.2,2.6c0,0.8,0,1.6,0,2.2L-251.4,91.7z"/>
		</g>
	</g>
	<g transform="translate(667.136521, 383.338204)">
		<g>
			<path class="st6" d="M-253.4,86.5c0.8-1.2,1.6-2.3,2.5-3.3c0.4-0.4,0.8-0.8,1.2-1.2c0.4-0.4,0.9-0.8,1.4-1.1
				c0.5-0.3,1-0.6,1.5-0.7c0.5-0.2,1-0.3,1.5-0.3c1.1,0,1.9,0.3,2.5,1c0.6,0.6,0.9,1.5,0.9,2.7c0,0.7-0.1,1.4-0.2,2.1
				c-0.1,0.7-0.3,1.5-0.7,2.4h-0.9c-0.1-0.6-0.4-1.2-0.9-1.6c-0.5-0.4-1.1-0.6-2-0.6c-0.6,0-1.3,0.1-1.9,0.4
				c-0.6,0.2-1.2,0.5-1.8,0.9c-0.6,0.4-1.2,0.7-1.7,1.2c-0.5,0.4-1,0.8-1.5,1.2v20.4c0,0.3,0,0.6-0.1,1c-0.1,0.4-0.3,0.7-0.6,1.1
				c-0.3,0.3-0.8,0.6-1.4,0.8c-0.6,0.2-1.5,0.4-2.6,0.4c-1.1,0-2-0.1-2.6-0.4c-0.6-0.3-1.1-0.6-1.5-0.9c-0.3-0.3-0.5-0.7-0.6-1.1
				c-0.1-0.4-0.1-0.7-0.1-0.9V85.4c0-0.6-0.1-1.1-0.4-1.6c-0.3-0.5-0.8-0.7-1.4-0.7c-0.4,0-0.7,0.1-0.9,0.2
				c-0.3,0.1-0.5,0.3-0.8,0.5l-0.7-0.8c0.5-0.4,1-0.8,1.6-1.2c0.6-0.4,1.2-0.7,1.9-1c0.7-0.3,1.4-0.5,2.2-0.7
				c0.8-0.2,1.6-0.3,2.5-0.3c0.9,0,1.7,0.1,2.3,0.4c0.6,0.2,1.2,0.6,1.6,0.9c0.4,0.4,0.7,0.8,1,1.3c0.2,0.5,0.4,1,0.5,1.5
				c0.1,0.5,0.2,1,0.2,1.4C-253.5,85.8-253.4,86.2-253.4,86.5z"/>
		</g>
	</g>
	<g transform="translate(690.617461, 383.338204)">
		<g>
			<path class="st6" d="M-251.4,82.4c-0.5,0-0.9,0.1-1.4,0.2c-0.4,0.1-0.8,0.3-1.2,0.6c-0.3,0.3-0.6,0.6-0.8,1.1
				c-0.2,0.4-0.3,0.9-0.3,1.5c0,0.8,0.3,1.6,0.9,2.4c0.6,0.8,1.3,1.6,2.2,2.5c0.9,0.9,1.9,1.8,2.9,2.7c1,0.9,2,1.9,2.9,3
				c0.9,1,1.6,2.1,2.2,3.3c0.6,1.2,0.9,2.4,0.9,3.8c0,1.5-0.3,2.9-0.8,4c-0.5,1.2-1.2,2.2-2.2,3c-1,0.8-2.1,1.4-3.5,1.9
				c-1.4,0.4-2.8,0.6-4.5,0.6c-1.4,0-2.7-0.2-3.9-0.6c-1.2-0.4-2.2-0.9-3.1-1.5c-0.9-0.6-1.7-1.2-2.3-1.9c-0.6-0.7-1.1-1.3-1.5-1.8
				l1.1-0.8c0.3,0.3,0.6,0.6,1,1c0.4,0.4,0.9,0.7,1.4,1c0.5,0.3,1.1,0.6,1.6,0.8c0.6,0.2,1.2,0.3,1.8,0.3c1.5,0,2.7-0.4,3.7-1.1
				c1-0.7,1.5-1.8,1.5-3.2c0-0.8-0.3-1.6-0.8-2.5c-0.5-0.8-1.2-1.7-2-2.6c-0.8-0.9-1.7-1.8-2.6-2.8c-0.9-1-1.8-2-2.6-3
				c-0.8-1-1.5-2.1-2-3.2c-0.5-1.1-0.8-2.2-0.8-3.4c0-1.3,0.3-2.5,0.8-3.4c0.5-1,1.2-1.8,2.1-2.4c0.9-0.7,1.9-1.1,3.1-1.5
				c1.1-0.3,2.3-0.5,3.5-0.5c1.4,0,2.7,0.1,3.8,0.4c1.2,0.3,2.1,0.6,3,1.2c0.8,0.5,1.5,1.2,1.9,1.9c0.5,0.8,0.7,1.7,0.7,2.7
				c0,0.8-0.3,1.5-0.8,2.1c-0.5,0.6-1.3,0.9-2.2,0.9c-0.9,0-1.6-0.2-2.1-0.6c-0.5-0.4-0.7-0.9-0.7-1.6c0-0.4,0.1-0.8,0.3-1
				c0.2-0.3,0.5-0.5,0.7-0.6c0.3-0.2,0.5-0.3,0.7-0.4c0.2-0.1,0.3-0.3,0.3-0.5c0-0.6-0.3-1.1-1-1.4
				C-249.6,82.6-250.4,82.4-251.4,82.4z"/>
		</g>
	</g>
</g>
<g>
	<g transform="translate(385.512171, 424.999422)">
		<g>
			<path class="st6" d="M-278.3,101.4c0-2.1-1.8-3.7-4.1-3.7h-7.3v18.4h9.4c3.6,0,5.6-2.8,5.6-5.8c0-2.9-1.9-5.5-5-5.9
				C-278.7,103.7-278.3,102.5-278.3,101.4z M-287.5,104.2v-4.6h4.4c1.6,0,2.8,1,2.8,2.3c0,1-0.6,2.3-2.1,2.3H-287.5z M-287.4,114.2
				v-8.3h6.2c2.8,0,4.3,2.1,4.3,4.2c0,2.2-1.4,4.1-4.3,4.1H-287.4z"/>
		</g>
	</g>
</g>
<g>
	<g transform="translate(407.66421, 424.999422)">
		<g>
			<path class="st6" d="M-274.4,102h-2.2v1.3c-1.2-1-3-1.6-4.9-1.6c-4.2,0-7.2,3.4-7.2,7.3c0,3.9,2.9,7.3,7.2,7.3
				c2,0,3.6-0.6,4.9-1.6v1.4h2.2V102z M-276.6,112.7c-1.1,1-2.7,1.6-4.6,1.6c-3.1,0-5.4-2.4-5.4-5.3s2.3-5.3,5.4-5.3
				c1.9,0,3.4,0.6,4.6,1.7V112.7z"/>
		</g>
	</g>
</g>
<g>
	<g transform="translate(429.048247, 424.999422)">
		<g>
			<path class="st6" d="M-279.2,101.7c-1.9,0-3.5,0.6-4.7,1.6V102h-2.2v14.1h2.2v-10.9c1.1-1,2.5-1.6,4.4-1.6c2.5,0,4.2,1.5,4.2,4.4
				v8h2.2v-8C-273.1,103.8-275.4,101.7-279.2,101.7z"/>
		</g>
	</g>
</g>
<g>
	<g transform="translate(449.688278, 424.999422)">
		<g>
			<path class="st6" d="M-270.8,102h-2.2v1.3c-1.3-0.9-3.1-1.5-4.9-1.5c-4,0-7.3,3-7.3,7.1c0,4.1,3.3,7.1,7.3,7.1
				c1.9,0,3.5-0.5,4.8-1.4l0,0.4c-0.2,2.2-1.7,4.3-5.2,4.3c-2.3,0-3.4-0.3-5.1-0.8l-0.4,1.6c2.1,0.6,2.7,0.9,6,0.9
				c4.9,0,7-3.4,7-6.9V102z M-283,108.8c0-2.9,2.4-5.2,5.5-5.2c1.8,0,3.4,0.6,4.6,1.7v7.1c-1.1,1-2.7,1.6-4.6,1.6
				C-280.6,114-283,111.8-283,108.8z"/>
		</g>
	</g>
</g>
<g>
	<g transform="translate(471.096315, 424.999422)">
		<g>
			<path class="st6" d="M-282.4,96.4v19.7h2.2V96.4H-282.4z"/>
		</g>
	</g>
</g>
<g>
	<g transform="translate(482.160326, 424.999422)">
		<g>
			<path class="st6" d="M-268,102h-2.2v1.3c-1.2-1-3-1.6-4.9-1.6c-4.2,0-7.2,3.4-7.2,7.3c0,3.9,2.9,7.3,7.2,7.3c2,0,3.6-0.6,4.9-1.6
				v1.4h2.2V102z M-270.1,112.7c-1.1,1-2.7,1.6-4.6,1.6c-3.1,0-5.4-2.4-5.4-5.3s2.3-5.3,5.4-5.3c1.9,0,3.4,0.6,4.6,1.7V112.7z"/>
		</g>
	</g>
</g>
<g>
	<g transform="translate(503.544365, 424.999422)">
		<g>
			<path class="st6" d="M-266.1,96.4h-2.1v6.8c-1.3-0.9-3-1.5-4.9-1.5c-4,0-7.3,3.1-7.3,7.3c0,4.2,3.3,7.3,7.3,7.3
				c1.9,0,3.7-0.6,4.9-1.5v1.4h2.1V96.4z M-272.8,114.3c-3,0-5.4-2.3-5.4-5.3c0-3,2.4-5.3,5.4-5.3c1.9,0,3.5,0.6,4.6,1.6v7.3
				C-269.4,113.7-271,114.3-272.8,114.3z"/>
		</g>
	</g>
</g>
<g>
	<g transform="translate(524.952403, 424.999422)">
		<g>
			<path class="st6" d="M-264.6,109.7c0,0,0-0.3,0-0.6c0-4.3-2.6-7.4-6.8-7.4c-4.2,0-7.2,3.3-7.2,7.3c0,4,3,7.3,7.2,7.3
				c2.7,0,5-1.1,6.3-2.8l-1.4-1.1c-1.1,1.3-2.7,2.1-4.5,2.1c-2.6,0-5-1.9-5.4-4.7H-264.6z M-271.4,103.5c2.9,0,4.5,1.9,4.7,4.5h-9.7
				C-276,105.5-274.1,103.5-271.4,103.5z"/>
		</g>
	</g>
</g>
<g>
	<g transform="translate(545.328436, 424.999422)">
		<g>
			<path class="st6" d="M-276.8,115c1.8,0.8,3.6,1.3,5.9,1.3c3.9,0,5.6-1.9,5.6-4.2c0-2.5-2.1-3.5-5.4-4.1c-2.6-0.5-4-1.1-4-2.3
				c0-1.3,1.3-2.1,3.2-2.1c1.6,0,3.2,0.3,4.6,0.9l0.7-1.6c-1.6-0.7-3.3-1.1-5.3-1.1c-3.1,0-5.2,1.7-5.2,4c0,2.4,2.2,3.4,5.3,4
				c2.5,0.5,4,1.1,4,2.4c0,1.2-0.9,2.3-3.5,2.3c-1.9,0-3.5-0.5-5.2-1.2L-276.8,115z"/>
		</g>
	</g>
</g>
<g>
	<g transform="translate(563.352467, 424.999422)">
		<g>
			<path class="st6" d="M-267.5,101.7c-1.9,0-3.5,0.5-4.7,1.5v-6.8h-2.2v19.7h2.2v-10.9c1.1-1,2.5-1.6,4.4-1.6
				c2.5,0,4.2,1.5,4.2,4.4v8h2.2v-8C-261.5,103.8-263.8,101.7-267.5,101.7z"/>
		</g>
	</g>
</g>
<g>
	<g transform="translate(592.176505, 424.999422)">
		<g>
			<path class="st6" d="M-265,105.9c-3.1-0.7-5.1-1.5-5.1-3.4c0-1.8,1.6-3,4.2-3c1.8,0,4.2,0.5,5.8,1.3l0.9-1.8
				c-1.7-0.8-4.3-1.4-6.7-1.4c-4,0-6.5,2.1-6.5,5.1c0,3.4,3.1,4.4,6.8,5.2c2.9,0.7,4.8,1.4,4.8,3.4c0,2-1.7,3.1-4.5,3.1
				c-2.5,0-3.9-0.2-6.5-1.5l-0.8,1.7c2.9,1.5,4.3,1.7,7.3,1.7c4.1,0,6.8-1.9,6.8-5.2C-258.5,107.9-261.3,106.8-265,105.9z"/>
		</g>
	</g>
</g>
<g>
	<g transform="translate(612.864537, 424.999422)">
		<g>
			<path class="st6" d="M-257.3,102h-2.2v10.7c-1.2,1-2.7,1.6-4.5,1.6c-2.5,0-4.3-1.5-4.3-4.4V102h-2.1v7.9c0,4.3,2.3,6.4,6,6.4
				c1.9,0,3.7-0.6,4.9-1.6v1.5h2.2V102z"/>
		</g>
	</g>
</g>
<g>
	<g transform="translate(633.672573, 424.999422)">
		<g>
			<path class="st6" d="M-256.3,105.3c1-1,2.2-1.6,3.8-1.6c2.5,0,4.2,1.5,4.2,4.4v8h2.2v-8c0-4.3-2.3-6.4-6.1-6.4
				c-1.9,0-3.7,0.8-4.8,2.1c-1-1.4-2.6-2.1-4.6-2.1c-1.8,0-3.4,0.6-4.6,1.6V102h-2.2v14.1h2.2v-10.9c1.1-1,2.4-1.6,4.2-1.6
				c2.3,0,3.9,1.5,3.9,4.4v8h2.2v-8C-255.9,106.9-256,106-256.3,105.3z"/>
		</g>
	</g>
</g>
<g>
	<g transform="translate(662.832621, 424.999422)">
		<g>
			<path class="st6" d="M-253.8,105.3c1-1,2.2-1.6,3.8-1.6c2.5,0,4.2,1.5,4.2,4.4v8h2.2v-8c0-4.3-2.3-6.4-6.1-6.4
				c-1.9,0-3.7,0.8-4.8,2.1c-1-1.4-2.6-2.1-4.6-2.1c-1.8,0-3.4,0.6-4.6,1.6V102h-2.2v14.1h2.2v-10.9c1.1-1,2.4-1.6,4.2-1.6
				c2.3,0,3.9,1.5,3.9,4.4v8h2.2v-8C-253.4,106.9-253.5,106-253.8,105.3z"/>
		</g>
	</g>
</g>
<g>
	<g transform="translate(691.992669, 424.999422)">
		<g>
			<path class="st6" d="M-262.1,99.6c0.7,0,1.3-0.6,1.3-1.4c0-0.8-0.6-1.3-1.3-1.3c-0.8,0-1.4,0.6-1.4,1.3
				C-263.5,99-262.9,99.6-262.1,99.6z M-263.2,102v14.1h2.2V102H-263.2z"/>
		</g>
	</g>
</g>
<g>
	<g transform="translate(703.080689, 424.999422)">
		<g>
			<path class="st6" d="M-259.2,103.8h4.8V102h-4.8v-5.6h-2.2v5.6h-2.3v1.8h2.3v8.2c0,2.8,1.8,4.3,4.1,4.3c1.6,0,2.5-0.3,2.8-0.4
				v-1.6c-0.5,0.1-1.1,0.2-2,0.2c-1.8,0-2.7-0.9-2.7-3.5V103.8z"/>
		</g>
	</g>
</g>
<g>
	
		<image style="overflow:visible;" width="1050" height="1200" id="SDOC-6B80FF5C21C383C4DD826458015541CF-09-21-SI_x5F__xA0_Image_00000157997863915960391480000008964401844432425111_" xlink:href="141E5BA6.png"  transform="matrix(3.774519e-02 0 0 3.774520e-02 75.221 455.5547)">
	</image>
</g>
<text transform="matrix(1 0 0 1 33.2741 719.4639)" class="st6 st12 st13">Dhaka,Bangladesh</text>
</svg>
