<?xml version="1.0" encoding="utf-8"?>
<!-- Generator: Adobe Illustrator 26.0.1, SVG Export Plug-In . SVG Version: 6.00 Build 0)  -->
<svg version="1.1"
	 id="Layer_1" sodipodi:docname="logo-dark.svg" xmlns:cc="http://creativecommons.org/ns#" xmlns:dc="http://purl.org/dc/elements/1.1/" xmlns:inkscape="http://www.inkscape.org/namespaces/inkscape" xmlns:rdf="http://www.w3.org/1999/02/22-rdf-syntax-ns#" xmlns:sodipodi="http://sodipodi.sourceforge.net/DTD/sodipodi-0.dtd" xmlns:svg="http://www.w3.org/2000/svg"
	 xmlns="http://www.w3.org/2000/svg" xmlns:xlink="http://www.w3.org/1999/xlink" x="0px" y="0px" viewBox="0 0 98.7 170"
	 style="enable-background:new 0 0 98.7 170;" xml:space="preserve">
<style type="text/css">
	.st0{fill:#2F1044;}
	.st1{clip-path:url(#SVGID_00000083057226539760793940000008956828251879928966_);}
	.st2{fill:#FF0101;}
	.st3{fill:#EE2E21;}
	.st4{clip-path:url(#SVGID_00000018209890034270736060000006465548290630685600_);}
	.st5{fill:#4E833C;}
	.st6{fill:#FFFFFF;}
	.st7{fill:none;}
	.st8{clip-path:url(#SVGID_00000114784397150477734840000018154134441430717057_);}
	.st9{clip-path:url(#SVGID_00000023995097363210941670000009449799693245030579_);}
	.st10{clip-path:url(#SVGID_00000082330900106496921180000016879478905283976595_);}
	.st11{clip-path:url(#SVGID_00000052086058130591477550000005793457060397608119_);}
</style>
<sodipodi:namedview  bordercolor="#666666" borderopacity="1" gridtolerance="10" guidetolerance="10" id="namedview207" inkscape:current-layer="g213" inkscape:cx="48.022153" inkscape:cy="315.6394" inkscape:pageopacity="0" inkscape:pageshadow="2" inkscape:window-height="708" inkscape:window-maximized="1" inkscape:window-width="1366" inkscape:window-x="0" inkscape:window-y="31" inkscape:zoom="0.5" objecttolerance="10" pagecolor="#ffffff" showgrid="false">
	</sodipodi:namedview>
<g id="g213" transform="translate(-51.5,-635.79999)">
	<g id="g329" transform="matrix(0.20739295,0,0,0.20739295,40.819263,638.68275)">
		<path id="rect4" class="st0" d="M91.4-13.9h396.3c22,0,39.9,17.8,39.9,39.9v740c0,22-17.8,39.9-39.9,39.9H91.4
			c-22,0-39.9-17.8-39.9-39.9V26C51.5,3.9,69.3-13.9,91.4-13.9z"/>
	</g>
</g>
<g>
	<defs>
		<rect id="SVGID_1_" x="21.8" y="28.8" width="55.9" height="52.3"/>
	</defs>
	<clipPath id="SVGID_00000083788812106094152100000018116817719856116151_">
		<use xlink:href="#SVGID_1_"  style="overflow:visible;"/>
	</clipPath>
	<g style="clip-path:url(#SVGID_00000083788812106094152100000018116817719856116151_);">
		<path class="st2" d="M43.5,39.7C30.2,26.8,22,28.9,22,28.9c17.2,6.6,27.8,52.2,27.8,52.2s10.6-45.5,27.8-52.2
			c0,0-8.3-2.1-21.5,10.7C52.6,43,47,43,43.5,39.7"/>
	</g>
</g>
<path class="st3" d="M54.9,34.1c0,2.9-2.3,5.3-5.2,5.3c-2.9,0-5.2-2.4-5.2-5.3c0-2.9,2.3-5.3,5.2-5.3C52.6,28.8,54.9,31.2,54.9,34.1
	"/>
<g>
	<defs>
		<rect id="SVGID_00000099647538354903059200000003419561833231242114_" x="50.7" y="36.2" width="44.5" height="44.7"/>
	</defs>
	<clipPath id="SVGID_00000024696750220915290800000007987735542556675002_">
		<use xlink:href="#SVGID_00000099647538354903059200000003419561833231242114_"  style="overflow:visible;"/>
	</clipPath>
	<g style="clip-path:url(#SVGID_00000024696750220915290800000007987735542556675002_);">
		<path class="st5" d="M51,80.8c0,0,9.5-34.6,22.4-44.4c0,0-2.6,9.8-2.8,18.8c-0.1,5.3,4.6,9.4,9.8,8.6c5.1-0.8,11.2-2.3,14.7-5.2
			C95.1,58.6,89.2,74.9,51,80.8"/>
	</g>
</g>
<path class="st5" d="M82.8,56c0,2.9-2.3,5.3-5.2,5.3c-2.9,0-5.2-2.4-5.2-5.3c0-2.9,2.3-5.3,5.2-5.3C80.4,50.7,82.8,53.1,82.8,56"/>
<path class="st5" d="M48.6,80.8c0,0-9.5-34.6-22.4-44.4c0,0,3.2,11.9,2.8,21.6c-0.2,3.7-3.4,6.6-7.2,6.2c-5.4-0.6-13.2-2.1-17.3-5.6
	C4.4,58.6,10.4,74.9,48.6,80.8"/>
<path class="st5" d="M16.8,56c0,2.9,2.3,5.3,5.2,5.3c2.9,0,5.2-2.4,5.2-5.3c0-2.9-2.3-5.3-5.2-5.3C19.1,50.7,16.8,53.1,16.8,56"/>
<g>
	<path class="st6" d="M58.4,71.9L58.4,71.9c0.8-1.4,1.2-3.1,1.2-4.8c-0.1-5.4-4.5-9.8-10-9.7c-5.4,0.1-9.8,4.5-9.7,10
		c0,1.7,0.5,3.3,1.3,4.8h0l0,0c0.2,0.4,0.4,0.7,0.7,1L50,85.3L57.7,73C57.9,72.6,58.2,72.3,58.4,71.9L58.4,71.9z"/>
	<path class="st5" d="M57,66.9c0.1,4-3.2,7.3-7.2,7.4c-4,0.1-7.3-3.2-7.4-7.2c-0.1-4,3.2-7.3,7.2-7.4C53.6,59.7,56.9,62.9,57,66.9z"
		/>
	<path class="st2" d="M55.1,66.9c0,3-2.3,5.4-5.3,5.5c-3,0-5.4-2.3-5.5-5.3c0-3,2.3-5.4,5.3-5.5C52.6,61.6,55.1,64,55.1,66.9z"/>
</g>
<rect x="-13.1" y="100.3" class="st7" width="31.4" height="31.5"/>
<g>
	<defs>
		<rect id="SVGID_00000045613375775289151750000007100195613323239102_" x="7" y="118.9" width="85.7" height="12.4"/>
	</defs>
	<clipPath id="SVGID_00000155128881045040614290000007612610202432413319_">
		<use xlink:href="#SVGID_00000045613375775289151750000007100195613323239102_"  style="overflow:visible;"/>
	</clipPath>
	<g style="clip-path:url(#SVGID_00000155128881045040614290000007612610202432413319_);">
		<path class="st6" d="M7.7,131.1c5.3-2.7,11.4-3.3,17.3-3.5c6.3-0.2,12.6,0.3,18.8,0.8c6.3,0.6,12.6,1.3,19,1.8
			c3.2,0.2,6.3,0.3,9.5,0.4c3,0,6,0,9-0.3c3-0.4,6-1.2,8.3-3.3c2-1.8,3.5-4.6,2.9-7.3c-0.2-1.1-2-0.9-2,0.3c0,2.4-0.9,4.5-2.8,6
			c-2.1,1.7-5,2.3-7.6,2.7c-6,0.7-12.1,0.5-18.1,0.1c-12.2-0.9-24.4-2.8-36.6-2.4c-6.2,0.2-12.6,0.9-18,4.2
			C7,130.7,7.3,131.3,7.7,131.1z"/>
	</g>
</g>
<path class="st6" d="M10.1,127.1c5.3-2,10.9-2.4,16.5-2.5c0.3,0,0.4-0.5,0.1-0.6c-5.7-0.8-11.5,0.5-16.7,2.8
	C9.9,127,10,127.2,10.1,127.1z"/>
<path class="st6" d="M87.5,130.3c2.1-0.3,4-1.3,5.4-2.8c0.7-0.8,1.4-1.6,1.8-2.6c0.4-0.8,1-2.1,0.5-2.9c-0.3-0.4-0.7-0.4-1-0.1
	c-0.6,0.5-0.5,1.7-0.8,2.5c-0.3,0.9-0.7,1.7-1.2,2.4c-1.2,1.6-2.8,2.8-4.7,3.3C87.3,130.1,87.4,130.3,87.5,130.3z"/>
<g>
	<defs>
		<rect id="SVGID_00000078011454991408557130000007436223459094764675_" x="72.5" y="120.9" width="5.3" height="7.3"/>
	</defs>
	<clipPath id="SVGID_00000168102746461809930870000014047317483231591595_">
		<use xlink:href="#SVGID_00000078011454991408557130000007436223459094764675_"  style="overflow:visible;"/>
	</clipPath>
	<g style="clip-path:url(#SVGID_00000168102746461809930870000014047317483231591595_);">
		<path class="st6" d="M73.7,127.5c-0.2,0.2-0.3,0.4-0.4,0.6c0,0.1-0.2,0.1-0.2,0c-0.1-0.1-0.3-0.2-0.4-0.4
			c-0.1-0.1-0.1-0.2-0.1-0.4c0-0.1,0.1-0.2,0.1-0.3c0,0,0.1-0.1,0.1-0.1c0.2-0.5,0.4-0.9,0.7-1.3c0.5-0.9,1-1.8,1.5-2.7
			c0.1-0.3,0.2-0.5,0.3-0.8c0-0.1,0-0.1,0-0.2c-0.1,0-0.3,0.1-0.4,0.1c-0.5,0.3-1,0.8-1.2,1.3c0,0.1-0.1,0.2-0.1,0.3
			c0,0,0,0.1-0.1,0.1c-0.1,0-0.2,0-0.3,0c-0.2-0.1-0.3-0.2-0.5-0.4c-0.1-0.1-0.1-0.2-0.1-0.4c0.1-0.2,0.2-0.4,0.4-0.6
			c0.4-0.5,0.8-0.9,1.4-1.2c0.2-0.1,0.5-0.2,0.7-0.2c0.5,0,0.8,0.3,0.8,0.7c0,0.2,0,0.4,0,0.6c0,0.1-0.1,0.3-0.1,0.4
			c-0.1,0.1-0.1,0.3-0.2,0.4c0,0.1-0.1,0.1-0.1,0.1c0,0,0,0,0,0c0,0.2-0.2,0.4-0.3,0.6c0,0,0,0,0,0c0,0.1-0.1,0-0.1,0.1
			c0,0,0,0.1-0.1,0.1c0,0-0.1,0.1-0.1,0.1c-0.1,0.1-0.1,0.2-0.2,0.3c0,0.1-0.1,0.2-0.2,0.3c0,0.1-0.1,0.2-0.2,0.3
			c0,0.1-0.1,0.1-0.1,0.2c0,0,0,0.1-0.1,0.1c0,0.1-0.1,0.2-0.1,0.2c-0.1,0.1-0.1,0.2-0.2,0.3c0,0.1-0.1,0.2-0.1,0.2c0,0,0,0,0,0.1
			c0,0,0.1,0,0.1,0c0.5-0.3,1.1-0.6,1.7-0.7c0,0,0.1,0,0.1,0c0,0,0-0.1,0-0.1c0-0.5,0.1-0.9,0.3-1.3c0.2-0.4,0.4-0.7,0.6-1.1
			c0,0,0,0,0-0.1c0.1-0.1,0.1-0.1,0.3,0c0,0,0.1,0,0.1,0c0.4,0,0.6,0.2,0.6,0.6c0,0.2,0,0.4-0.1,0.6c-0.1,0.3-0.2,0.7-0.4,1
			c-0.1,0.2-0.2,0.4-0.3,0.5c-0.1,0.1-0.1,0.2-0.2,0.3c-0.1,0.2-0.4,0.3-0.6,0.3c0,0-0.1,0-0.1,0c-0.1,0-0.1,0-0.2,0
			c-0.2,0.1-0.4,0.1-0.6,0.2c-0.1,0-0.2,0.1-0.3,0.1c0,0,0,0,0,0c-0.1,0.2-0.2,0.2-0.3,0.1c0,0,0,0,0,0c0,0-0.1,0.1-0.1,0.1
			c0,0-0.1,0-0.1,0.1c0,0-0.1,0.1-0.1,0.1c-0.2,0.1-0.4,0.3-0.6,0.4c0,0,0,0-0.1,0.1c0.1,0,0.1-0.1,0.2-0.1c0.1,0,0.1,0.1,0,0.1
			C73.8,127.4,73.8,127.4,73.7,127.5z M76.9,124.7c0.1-0.3,0.3-0.6,0.3-0.9c0-0.1,0-0.3,0-0.4c0,0,0,0,0-0.1c0,0.2-0.1,0.4-0.2,0.5
			c-0.1,0.3-0.3,0.5-0.4,0.8c0,0.1-0.1,0.2-0.1,0.3c0,0.1-0.1,0.2,0,0.3c0.2,0,0.2,0,0.3-0.1C76.7,125,76.8,124.9,76.9,124.7z"/>
	</g>
</g>
<g>
	<defs>
		<rect id="SVGID_00000174560379280065211970000001221995810333572259_" x="77.2" y="120.1" width="4.6" height="6.2"/>
	</defs>
	<clipPath id="SVGID_00000000900832602195008470000005854839792780343463_">
		<use xlink:href="#SVGID_00000174560379280065211970000001221995810333572259_"  style="overflow:visible;"/>
	</clipPath>
	<g style="clip-path:url(#SVGID_00000000900832602195008470000005854839792780343463_);">
		<path class="st6" d="M78.9,123.4c0.3-0.4,0.7-0.9,1-1.3c0.2-0.3,0.4-0.6,0.5-0.9c0-0.1,0.1-0.2,0.1-0.3c-0.2,0-0.3,0-0.4,0.1
			c-0.5,0.2-0.9,0.5-1.2,0.9c-0.1,0.1-0.2,0.2-0.2,0.3c0,0.1-0.1,0.1-0.2,0.1c-0.1,0-0.2,0-0.3-0.1c-0.1-0.1-0.2-0.2-0.3-0.2
			c-0.2-0.1-0.2-0.2-0.1-0.4c0.5-0.7,1.1-1.2,2-1.4c0.3-0.1,0.6-0.1,0.8,0c0.3,0.1,0.5,0.3,0.5,0.6c0,0.3-0.1,0.6-0.2,0.8
			c-0.1,0.1-0.1,0.2-0.2,0.3c0,0.1-0.1,0.1-0.2,0.2c0,0.1-0.1,0.1-0.1,0.2c0,0-0.1,0.1-0.1,0.1c0,0.1,0,0.2-0.1,0.2c0,0,0,0-0.1,0
			c-0.1,0.1-0.3,0.3-0.4,0.4c-0.1,0.1-0.2,0.2-0.3,0.3c0,0-0.1,0.1-0.1,0.1c-0.1,0.1-0.2,0.2-0.3,0.4c-0.1,0.1-0.2,0.2-0.3,0.3
			c-0.1,0.1-0.1,0.2-0.2,0.2c0.1,0,0.1,0,0.1,0c0.1,0,0.2-0.1,0.2-0.1c0.6-0.2,1.3-0.4,1.9-0.5c0.1,0,0.3,0,0.4,0
			c0.2,0,0.3,0.1,0.4,0.2c0,0,0,0,0,0c-0.1,0.1-0.2,0.2-0.3,0.2c-0.1,0-0.1,0.1-0.2,0.1c-0.3,0.1-0.6,0.1-0.9,0.1
			c-0.2,0-0.3,0.1-0.4,0.1c0,0-0.1,0-0.1,0.1c-0.1,0-0.1,0.1-0.2,0.1c-0.2-0.1-0.3,0-0.3,0.1c-0.1,0.1-0.1,0.1-0.2,0.1
			c0,0-0.1,0.1-0.1,0.1c-0.1,0.1-0.3,0.1-0.4,0.2c0,0,0,0-0.1,0.1c0.1,0,0.1-0.1,0.2-0.1c0,0,0.1,0.1,0,0.1
			c-0.1,0.1-0.1,0.1-0.2,0.2c-0.2,0.1-0.3,0.3-0.5,0.4c-0.1,0.1-0.2,0.1-0.3,0c-0.1-0.1-0.2-0.2-0.3-0.3c-0.1-0.1-0.1-0.2-0.1-0.4
			c0-0.1,0.1-0.2,0.2-0.2c0.1-0.1,0.1-0.2,0.2-0.2c0.2-0.2,0.3-0.4,0.4-0.6C78.4,124.1,78.7,123.8,78.9,123.4z"/>
	</g>
</g>
<g>
	<defs>
		<rect id="SVGID_00000132800667896650975300000007233804812072624516_" x="81.4" y="120.7" width="3" height="4.6"/>
	</defs>
	<clipPath id="SVGID_00000052093244828264743660000001095745996656594855_">
		<use xlink:href="#SVGID_00000132800667896650975300000007233804812072624516_"  style="overflow:visible;"/>
	</clipPath>
	<g style="clip-path:url(#SVGID_00000052093244828264743660000001095745996656594855_);">
		<path class="st6" d="M83.2,122.8c0.1,0.1,0.1,0.1,0.2,0.1c0.1,0.1,0.1,0.1,0.2,0.2c0,0.1,0,0.1,0.1,0.2c0.1,0.1,0.1,0.2,0.1,0.3
			c0.1,0.1,0,0.1,0,0.2c0,0.1-0.1,0.2-0.2,0.2c0,0-0.1,0-0.1,0c0,0-0.1,0-0.1,0c-0.1,0.1-0.2,0.2-0.2,0.3c-0.1,0.1-0.2,0.2-0.4,0.4
			c-0.2,0.2-0.4,0.3-0.7,0.4c-0.2,0.1-0.4,0.1-0.6,0c0,0-0.1,0-0.1-0.1c0,0,0.1,0,0.1,0c0.1,0,0.1,0,0.2,0c0.2-0.1,0.4-0.2,0.6-0.3
			c0.1-0.1,0.2-0.1,0.2-0.2c0.2-0.2,0.4-0.5,0.6-0.7c0.1-0.1,0.1-0.2,0.1-0.4c0-0.1-0.1-0.2-0.2-0.2c-0.1,0-0.1,0-0.2,0
			c-0.3,0.1-0.5,0.2-0.7,0.3c-0.1,0-0.2,0.1-0.2,0.1c-0.1,0-0.2-0.1-0.3-0.2c0-0.1,0-0.1-0.1-0.2c-0.1,0-0.1-0.1,0-0.1
			c0,0,0.1-0.1,0.1-0.1c0.2-0.1,0.4-0.3,0.6-0.4c0.1-0.1,0.3-0.2,0.4-0.3c0.3-0.3,0.6-0.5,0.9-0.9c0,0,0.1-0.1,0.1-0.1c0,0,0,0,0,0
			c-0.1,0-0.1,0-0.2,0c-0.5,0.1-0.9,0.4-1.3,0.7c0,0,0,0-0.1,0.1c-0.1,0.1-0.1,0.1-0.2,0.1c-0.1,0-0.2-0.1-0.3-0.2
			c-0.1,0-0.1-0.1-0.1-0.2c-0.1-0.1-0.1-0.2,0-0.3c0.2-0.2,0.4-0.4,0.6-0.5c0.3-0.2,0.6-0.3,0.9-0.3c0.1,0,0.2,0,0.4-0.1
			c0.4-0.1,0.7,0.2,0.8,0.4c0.1,0.1,0.1,0.3,0.1,0.4c-0.1,0-0.2,0.2-0.3,0.2c-0.1,0.2-0.3,0.3-0.4,0.4c0,0-0.1,0.1-0.2,0.1
			c-0.1,0-0.1,0.1-0.2,0.1c-0.1,0.1-0.2,0.1-0.3,0.2c0,0-0.1,0.1-0.1,0.1C83,122.8,83.1,122.8,83.2,122.8z"/>
	</g>
</g>
<path class="st6" d="M82,125.6C82,125.6,82,125.6,82,125.6c-0.2,0-0.4,0-0.5,0c-0.1,0-0.1-0.1-0.2-0.2c0,0,0.1,0,0.1,0
	c0.1,0.1,0.1,0.1,0.2,0.1c0,0,0.1,0,0.1,0c0,0,0-0.1,0-0.1c0.3,0,0.6-0.1,0.8-0.3c0.3-0.1,0.5-0.3,0.7-0.5c0.1,0,0.1,0.1,0,0.1
	c-0.1,0.1-0.2,0.2-0.3,0.3c-0.1,0.1-0.3,0.2-0.4,0.3c-0.1,0-0.1,0.1-0.2,0.1C82.3,125.4,82.2,125.5,82,125.6z"/>
<g>
	<g transform="translate(336.757107, 383.338204)">
		<g>
			<path class="st6" d="M-325.4-271.5c0.3,0,0.6-0.1,0.9-0.2c0.3-0.2,0.5-0.4,0.8-0.7c0.2-0.3,0.5-0.6,0.7-1
				c0.2-0.4,0.4-0.8,0.6-1.3c-0.5-1.5-0.9-2.9-1.4-4.1c-0.5-1.2-0.9-2.2-1.4-3.1c-0.2-0.4-0.5-0.8-0.7-1c-0.3-0.2-0.5-0.3-0.7-0.3
				c-0.1,0-0.3,0-0.4,0.1c-0.1,0.1-0.2,0.1-0.3,0.2l-0.2-0.2c0.1-0.1,0.2-0.2,0.3-0.3c0.1-0.1,0.3-0.2,0.5-0.3
				c0.2-0.1,0.4-0.1,0.6-0.2c0.2-0.1,0.5-0.1,0.7-0.1c0.1,0,0.3,0,0.4,0c0.2,0,0.3,0.1,0.5,0.1c0.2,0.1,0.3,0.2,0.5,0.3
				c0.2,0.1,0.3,0.3,0.5,0.5c0.3,0.5,0.7,1.1,1,1.9c0.4,0.8,0.7,1.8,1.2,3c0.1-0.4,0.3-0.8,0.4-1.2c0.1-0.4,0.3-0.8,0.4-1.1
				c0.1-0.4,0.3-0.7,0.4-1.1c0.1-0.3,0.3-0.7,0.4-1c0.1-0.3,0.3-0.6,0.5-0.8c0.2-0.2,0.3-0.4,0.5-0.6c0.2-0.2,0.4-0.3,0.6-0.4
				c0.2-0.1,0.5-0.1,0.8-0.1c0.2,0,0.4,0,0.5,0.1c0.1,0.1,0.2,0.2,0.2,0.4c0,0.2,0,0.3-0.1,0.4c-0.1,0.1-0.1,0.2-0.2,0.2
				c-0.1,0-0.1,0-0.2-0.1c0-0.1-0.1-0.1-0.1-0.2c0-0.1-0.1-0.1-0.2-0.2c-0.1-0.1-0.1-0.1-0.3-0.1c-0.3,0-0.5,0.1-0.7,0.4
				c-0.2,0.2-0.4,0.6-0.6,1c-0.2,0.4-0.4,0.9-0.6,1.4c-0.2,0.5-0.4,1.1-0.5,1.7c-0.2,0.6-0.4,1.2-0.6,1.9c-0.2,0.6-0.4,1.3-0.6,1.9
				c-0.2,0.6-0.5,1.2-0.7,1.7c-0.3,0.5-0.6,1-0.9,1.4c-0.3,0.4-0.7,0.7-1.1,1c-0.4,0.2-0.9,0.4-1.3,0.4c-0.2,0-0.4,0-0.6-0.1
				c-0.2,0-0.4-0.1-0.5-0.2c-0.2-0.1-0.3-0.1-0.4-0.2c-0.1-0.1-0.2-0.2-0.2-0.3c0-0.1,0-0.2,0-0.2c0-0.1,0-0.1,0.1-0.2
				c0-0.1,0.1-0.1,0.1-0.2c0.1,0,0.1-0.1,0.2-0.1c0,0,0.1,0,0.1,0.1c0,0,0.1,0.1,0.1,0.2c0,0.1,0.1,0.1,0.2,0.2
				c0.1,0.1,0.1,0.2,0.2,0.2c0.1,0.1,0.2,0.1,0.3,0.2C-325.7-271.5-325.6-271.5-325.4-271.5z"/>
		</g>
	</g>
	<g transform="translate(402.43442, 383.338204)">
		<g>
			<path class="st6" d="M-371.5-275.5c0,0,0,0.1,0,0.1c0,0,0,0.1,0,0.1c0,0,0,0.1,0.1,0.1c0,0,0.1,0,0.1,0c0.1,0,0.2,0,0.2-0.1
				c0.1-0.1,0.1-0.1,0.2-0.2l0.2,0.1c-0.1,0.1-0.1,0.2-0.2,0.3c-0.1,0.1-0.2,0.2-0.3,0.3c-0.1,0.1-0.3,0.2-0.5,0.2
				c-0.2,0.1-0.4,0.1-0.6,0.1c-0.2,0-0.3,0-0.5-0.1c-0.1,0-0.3-0.1-0.3-0.2c-0.1-0.1-0.2-0.2-0.2-0.3c0-0.1-0.1-0.2-0.1-0.4v-0.3
				c-0.2,0.2-0.4,0.4-0.7,0.6c-0.1,0.1-0.2,0.1-0.3,0.2c-0.1,0.1-0.2,0.1-0.4,0.2c-0.1,0.1-0.2,0.1-0.4,0.1c-0.1,0-0.3,0.1-0.4,0.1
				c-0.3,0-0.5,0-0.6-0.1c-0.2-0.1-0.3-0.2-0.4-0.4c-0.1-0.1-0.2-0.3-0.2-0.5c-0.1-0.2-0.1-0.4-0.1-0.6v-3.9c0,0,0-0.1,0-0.1
				c0,0,0-0.1,0-0.1c0,0,0-0.1-0.1-0.1c0,0-0.1,0-0.1,0c-0.1,0-0.1,0-0.2,0.1c-0.1,0.1-0.1,0.1-0.2,0.2l-0.2-0.1
				c0.1-0.1,0.1-0.2,0.2-0.3c0.1-0.1,0.2-0.2,0.3-0.3c0.1-0.1,0.3-0.2,0.5-0.2c0.2-0.1,0.4-0.1,0.6-0.1c0.2,0,0.3,0,0.5,0.1
				c0.1,0,0.3,0.1,0.3,0.2c0.1,0.1,0.2,0.2,0.2,0.3c0,0.1,0.1,0.2,0.1,0.4v4.2c0,0.1,0,0.1,0,0.2c0,0.1,0,0.1,0.1,0.2
				c0,0.1,0.1,0.1,0.1,0.1c0.1,0,0.1,0,0.2,0c0.1,0,0.2,0,0.4-0.1c0.1-0.1,0.2-0.1,0.3-0.2c0.1-0.1,0.2-0.2,0.3-0.3
				c0.1-0.1,0.1-0.1,0.2-0.2v-3.7c0,0,0-0.1,0-0.1c0,0,0-0.1,0-0.1c0,0,0-0.1-0.1-0.1c0,0-0.1,0-0.1,0c-0.1,0-0.1,0-0.2,0.1
				c-0.1,0.1-0.1,0.1-0.2,0.2l-0.2-0.1c0.1-0.1,0.1-0.2,0.2-0.3c0.1-0.1,0.2-0.2,0.3-0.3c0.1-0.1,0.3-0.2,0.5-0.2
				c0.2-0.1,0.4-0.1,0.6-0.1c0.2,0,0.3,0,0.5,0.1c0.1,0,0.3,0.1,0.3,0.2c0.1,0.1,0.2,0.2,0.2,0.3c0,0.1,0.1,0.2,0.1,0.4V-275.5z"/>
		</g>
	</g>
	<g transform="translate(435.273077, 383.338204)">
		<g>
			<path class="st6" d="M-400.6-280.4v4.7c0,0.2,0,0.4,0.1,0.5c0.1,0.1,0.2,0.1,0.3,0.1c0.1,0,0.2,0,0.3-0.1
				c0.1-0.1,0.2-0.1,0.2-0.2c0.1-0.1,0.1-0.2,0.2-0.3l0.2,0.1c-0.1,0.1-0.1,0.3-0.2,0.4c-0.1,0.2-0.2,0.3-0.3,0.4
				c-0.1,0.1-0.3,0.3-0.5,0.3c-0.2,0.1-0.5,0.1-0.8,0.1c-0.2,0-0.4,0-0.5-0.1c-0.2-0.1-0.3-0.1-0.5-0.3c-0.1-0.1-0.2-0.3-0.3-0.4
				c-0.1-0.2-0.1-0.4-0.1-0.6v-4.7h-0.7v-0.5c0.1,0,0.3,0,0.5-0.1c0.2-0.1,0.4-0.2,0.6-0.3c0.2-0.1,0.4-0.3,0.6-0.6
				c0.2-0.2,0.3-0.5,0.4-0.9h0.5v1.9h1c0.3,0,0.5-0.1,0.5-0.2c0,0,0-0.1-0.1-0.1c0,0-0.1,0-0.1-0.1c-0.1,0-0.1-0.1-0.1-0.1
				c0,0-0.1-0.1-0.1-0.2c0-0.1,0-0.2,0.1-0.3c0.1-0.1,0.2-0.1,0.3-0.1c0.1,0,0.1,0,0.2,0c0.1,0,0.1,0.1,0.1,0.1
				c0,0.1,0.1,0.1,0.1,0.2c0,0.1,0,0.1,0,0.2c0,0.3-0.1,0.5-0.2,0.7c-0.2,0.2-0.4,0.2-0.8,0.2H-400.6z"/>
		</g>
	</g>
	<g transform="translate(455.201549, 383.338204)">
		<g>
			<path class="st6" d="M-416.3-279.8c0.2-0.2,0.3-0.4,0.5-0.6c0.1-0.1,0.2-0.2,0.3-0.2c0.1-0.1,0.2-0.1,0.3-0.2
				c0.1-0.1,0.2-0.1,0.4-0.1c0.1,0,0.3-0.1,0.4-0.1c0.3,0,0.5,0.1,0.8,0.2c0.2,0.1,0.4,0.3,0.6,0.5c0.2,0.3,0.3,0.6,0.3,1
				c0.1,0.4,0.1,0.9,0.1,1.6c0,0.6-0.1,1.1-0.2,1.6c-0.1,0.4-0.3,0.8-0.4,1.1c-0.2,0.3-0.4,0.6-0.6,0.8c-0.2,0.2-0.4,0.4-0.7,0.5
				c-0.2,0.1-0.4,0.2-0.7,0.2c-0.2,0-0.4,0.1-0.5,0.1l-0.1-0.3c0.2,0,0.4-0.1,0.5-0.3c0.1-0.1,0.3-0.3,0.4-0.6
				c0.1-0.3,0.2-0.7,0.2-1.2c0.1-0.5,0.1-1.1,0.1-1.9c0-0.5,0-1-0.1-1.3c0-0.3-0.1-0.6-0.2-0.7c-0.1-0.2-0.2-0.3-0.3-0.3
				c-0.1-0.1-0.2-0.1-0.3-0.1c-0.1,0-0.2,0-0.3,0.1c-0.1,0.1-0.2,0.1-0.2,0.2c-0.1,0.1-0.1,0.2-0.2,0.3c0,0.1-0.1,0.1-0.1,0.2v4.2
				c0,0.1,0,0.1,0,0.2c0,0.1-0.1,0.2-0.1,0.2c-0.1,0.1-0.2,0.1-0.3,0.2c-0.1,0-0.3,0.1-0.5,0.1c-0.2,0-0.4,0-0.5-0.1
				c-0.1-0.1-0.2-0.1-0.3-0.2c-0.1-0.1-0.1-0.1-0.1-0.2c0-0.1,0-0.1,0-0.2v-8.1c0-0.1,0-0.2-0.1-0.3c-0.1-0.1-0.2-0.1-0.3-0.1
				c-0.1,0-0.1,0-0.2,0c-0.1,0-0.1,0.1-0.2,0.1l-0.1-0.2c0.1-0.1,0.2-0.2,0.3-0.2c0.1-0.1,0.2-0.1,0.4-0.2c0.1-0.1,0.3-0.1,0.5-0.1
				c0.2,0,0.3-0.1,0.5-0.1c0.3,0,0.5,0,0.6,0.1c0.2,0.1,0.3,0.2,0.3,0.3c0.1,0.1,0.1,0.2,0.1,0.3c0,0.1,0,0.2,0,0.3V-279.8z"/>
		</g>
	</g>
	<g transform="translate(486.740523, 383.338204)">
		<g>
			<path class="st6" d="M-437.2-276.7l-2.3-4.5l-0.1,1.5c0,0.4-0.1,0.9-0.1,1.3c0,0.4-0.1,0.8-0.1,1.2c-0.1,0.4-0.1,0.8-0.2,1.1
				c-0.1,0.3-0.3,0.6-0.5,0.9c-0.2,0.2-0.5,0.4-0.8,0.6c-0.3,0.1-0.7,0.2-1.2,0.2c-0.2,0-0.4,0-0.6-0.1c-0.2,0-0.4-0.1-0.5-0.1
				c-0.2-0.1-0.3-0.1-0.4-0.2c-0.1-0.1-0.1-0.2-0.1-0.3c0-0.1,0-0.2,0-0.2c0-0.1,0.1-0.1,0.1-0.2c0-0.1,0.1-0.1,0.2-0.2
				c0.1,0,0.1-0.1,0.2-0.1c0,0,0.1,0,0.1,0.1c0,0,0.1,0.1,0.1,0.2c0,0.1,0.1,0.1,0.1,0.2c0,0.1,0.1,0.2,0.2,0.2
				c0.1,0.1,0.2,0.1,0.3,0.2c0.1,0,0.2,0.1,0.4,0.1c0.3,0,0.6-0.1,0.8-0.2c0.2-0.1,0.4-0.3,0.5-0.5c0.1-0.2,0.3-0.5,0.3-0.8
				c0.1-0.3,0.1-0.6,0.2-1c0-0.2,0-0.4,0.1-0.6c0-0.2,0-0.4,0-0.6c0-0.2,0-0.4,0-0.6c0-0.2,0-0.4,0-0.6c0-0.3,0-0.6,0.1-0.9
				c0-0.3,0-0.6,0-0.8c0-0.3,0-0.5,0-0.7c0-0.2,0-0.4,0-0.5c-0.1-0.1-0.1-0.3-0.2-0.4c-0.1-0.1-0.1-0.2-0.2-0.2
				c-0.1,0-0.1-0.1-0.2-0.1c-0.1,0-0.2,0-0.3,0c-0.1,0-0.2,0-0.3,0c-0.1,0-0.3,0.1-0.4,0.1c-0.1,0.1-0.3,0.1-0.4,0.2
				c-0.1,0.1-0.3,0.2-0.4,0.3c-0.1,0.1-0.2,0.2-0.3,0.4c-0.1,0.1-0.1,0.3-0.1,0.4c0,0.1,0,0.2,0.1,0.3c0,0.1,0.1,0.1,0.1,0.2
				c0,0,0.1,0.1,0.1,0.1c0,0,0.1,0,0.1,0c0.1,0,0.2,0,0.3-0.1c0.1,0,0.1-0.1,0.2-0.1c0.1,0,0.1-0.1,0.2-0.1c0,0,0.1-0.1,0.2-0.1
				c0,0,0.1,0,0.2,0c0.1,0,0.1,0.1,0.2,0.1c0,0.1,0.1,0.1,0.1,0.2c0,0.1,0.1,0.2,0.1,0.3c0,0.2,0,0.3-0.1,0.4
				c-0.1,0.1-0.1,0.2-0.3,0.3c-0.1,0.1-0.2,0.1-0.4,0.2c-0.1,0-0.3,0.1-0.4,0.1c-0.2,0-0.4,0-0.5-0.1c-0.2-0.1-0.3-0.2-0.4-0.3
				c-0.1-0.1-0.2-0.3-0.3-0.4c-0.1-0.2-0.1-0.3-0.1-0.5c0-0.4,0.1-0.8,0.3-1.1c0.2-0.3,0.5-0.6,0.8-0.8c0.3-0.2,0.7-0.4,1.1-0.5
				c0.4-0.1,0.8-0.2,1.3-0.2c0.3,0,0.6,0,0.9,0.1c0.2,0.1,0.4,0.2,0.6,0.3c0.2,0.1,0.3,0.3,0.4,0.4c0.1,0.2,0.2,0.3,0.3,0.5l1.7,3.4
				c0.4-0.9,0.8-1.6,1.2-2.3c0.4-0.7,0.7-1.3,1-1.8c0.3-0.5,0.6-1,0.8-1.3c0.3-0.4,0.5-0.7,0.8-0.9c0.2-0.2,0.5-0.4,0.7-0.5
				c0.2-0.1,0.5-0.2,0.8-0.2c0.2,0,0.4,0,0.5,0.1c0.1,0.1,0.2,0.2,0.2,0.4c0,0.2,0,0.3-0.1,0.4c-0.1,0.1-0.1,0.2-0.2,0.2
				c-0.1,0-0.1,0-0.2-0.1c0-0.1-0.1-0.1-0.1-0.2c0-0.1-0.1-0.1-0.1-0.2c-0.1-0.1-0.1-0.1-0.3-0.1c-0.1,0-0.1,0-0.2,0.1
				c-0.1,0-0.2,0.1-0.3,0.2c-0.1,0.1-0.2,0.2-0.3,0.3c-0.1,0.1-0.2,0.2-0.3,0.4c-0.1,0.2-0.1,0.3-0.2,0.5c0,0.2-0.1,0.4,0,0.6
				c0,0.3,0,0.6,0.1,0.9c0,0.4,0.1,0.7,0.1,1.1c0,0.4,0.1,0.8,0.1,1.3c0,0.4,0.1,0.9,0.1,1.3c0,0.4,0.1,0.8,0.1,1.2
				c0,0.4,0.1,0.7,0.1,1.1c0,0.3,0.1,0.6,0.1,0.8c0,0.2,0.1,0.4,0.1,0.4c0,0.1,0.1,0.2,0.1,0.3c0,0.1,0.1,0.1,0.2,0.1
				c0.1,0,0.2,0,0.3-0.1c0.1,0,0.2-0.1,0.3-0.1l0.1,0.2c-0.1,0.1-0.2,0.1-0.3,0.2c-0.1,0.1-0.2,0.1-0.4,0.2
				c-0.1,0.1-0.3,0.1-0.5,0.2c-0.2,0-0.4,0.1-0.6,0.1c-0.3,0-0.5,0-0.7-0.1c-0.2-0.1-0.3-0.2-0.4-0.3c-0.1-0.1-0.1-0.2-0.2-0.3
				c0-0.1-0.1-0.2-0.1-0.3c0-0.2-0.1-0.5-0.1-0.8c0-0.3-0.1-0.6-0.1-1c0-0.3-0.1-0.7-0.1-1.1c0-0.4-0.1-0.7-0.1-1.1
				c0-0.4-0.1-0.7-0.1-1c0-0.3,0-0.6-0.1-0.8c-0.1,0.2-0.2,0.4-0.4,0.6c-0.1,0.2-0.2,0.4-0.3,0.6c-0.1,0.2-0.2,0.4-0.3,0.6
				c-0.1,0.2-0.2,0.5-0.3,0.7c-0.1,0.3-0.2,0.5-0.4,0.8c-0.1,0.3-0.3,0.7-0.5,1H-437.2z"/>
		</g>
	</g>
	<g transform="translate(546.063831, 383.338204)">
		<g>
			<path class="st6" d="M-486.4-277.7c0-0.1,0-0.2-0.1-0.2c-0.1-0.1-0.2-0.1-0.3-0.1c-0.1,0-0.3,0-0.4,0.1c-0.1,0.1-0.2,0.2-0.3,0.3
				c-0.1,0.1-0.2,0.3-0.2,0.5c-0.1,0.2-0.1,0.4-0.1,0.7c0,0.2,0,0.4,0.1,0.6c0,0.2,0.1,0.3,0.1,0.4c0.1,0.1,0.1,0.2,0.2,0.2
				c0.1,0,0.2,0.1,0.3,0.1c0.1,0,0.2,0,0.3-0.1c0.1-0.1,0.2-0.1,0.3-0.2c0.1-0.1,0.1-0.2,0.2-0.3c0-0.1,0.1-0.2,0.1-0.3V-277.7z
				 M-487.4-280.4c-0.1,0-0.3,0-0.4,0.1c-0.1,0-0.2,0.1-0.3,0.1c-0.1,0.1-0.2,0.1-0.2,0.2c-0.1,0.1-0.1,0.1-0.1,0.2
				c0,0.1,0,0.1,0.1,0.1c0.1,0,0.1,0.1,0.2,0.1c0.1,0,0.2,0.1,0.2,0.2c0.1,0.1,0.1,0.2,0.1,0.3c0,0.1,0,0.2-0.1,0.2
				c0,0.1-0.1,0.1-0.1,0.2c-0.1,0.1-0.1,0.1-0.2,0.1c-0.1,0-0.2,0-0.3,0c-0.2,0-0.4-0.1-0.6-0.2c-0.1-0.2-0.2-0.4-0.2-0.6
				c0-0.3,0.1-0.5,0.2-0.7c0.1-0.2,0.3-0.3,0.5-0.5c0.2-0.1,0.5-0.2,0.7-0.3c0.3-0.1,0.5-0.1,0.8-0.1c0.3,0,0.6,0,0.9,0.1
				c0.3,0.1,0.6,0.2,0.8,0.3c0.2,0.2,0.4,0.4,0.5,0.6c0.1,0.2,0.2,0.5,0.2,0.9v3.6c0,0,0,0.1,0,0.1c0,0,0,0.1,0,0.1
				c0,0,0,0.1,0.1,0.1c0,0,0.1,0,0.1,0c0.1,0,0.1,0,0.2-0.1c0.1-0.1,0.1-0.1,0.2-0.2l0.2,0.1c-0.1,0.1-0.1,0.2-0.2,0.3
				c-0.1,0.1-0.2,0.2-0.3,0.3c-0.1,0.1-0.3,0.2-0.4,0.2c-0.2,0.1-0.4,0.1-0.6,0.1c-0.3,0-0.5-0.1-0.7-0.2c-0.2-0.2-0.3-0.4-0.4-0.7
				c-0.1,0.2-0.3,0.3-0.4,0.5c-0.1,0.1-0.3,0.2-0.4,0.3c-0.2,0.1-0.3,0.1-0.5,0.2c-0.2,0-0.3,0.1-0.5,0.1c-0.2,0-0.4,0-0.6-0.1
				c-0.2-0.1-0.4-0.2-0.5-0.3c-0.1-0.1-0.3-0.3-0.4-0.5c-0.1-0.2-0.1-0.5-0.1-0.8c0-0.4,0.1-0.7,0.2-0.9c0.2-0.2,0.4-0.5,0.6-0.6
				c0.2-0.2,0.5-0.3,0.8-0.4c0.3-0.1,0.6-0.2,1-0.4c0.2-0.1,0.4-0.2,0.5-0.4c0.1-0.2,0.2-0.4,0.2-0.6c0-0.3-0.1-0.6-0.3-0.7
				C-486.9-280.3-487.1-280.4-487.4-280.4z"/>
		</g>
	</g>
	<g transform="translate(575.523312, 383.338204)">
		<g>
			<path class="st6" d="M-512.2-279.9c0-0.1,0-0.2-0.1-0.3c-0.1-0.1-0.2-0.1-0.3-0.1c-0.1,0-0.1,0-0.2,0c-0.1,0-0.1,0.1-0.2,0.1
				l-0.1-0.2c0.1-0.1,0.2-0.2,0.3-0.2c0.1-0.1,0.3-0.1,0.4-0.2c0.1-0.1,0.3-0.1,0.4-0.1c0.2,0,0.3-0.1,0.5-0.1c0.2,0,0.4,0,0.5,0.1
				c0.1,0.1,0.2,0.1,0.3,0.2c0.1,0.1,0.2,0.2,0.2,0.3c0,0.1,0.1,0.2,0.1,0.2c0.1-0.1,0.2-0.2,0.3-0.3c0.1-0.1,0.2-0.2,0.4-0.2
				c0.1-0.1,0.3-0.1,0.4-0.2c0.2,0,0.3-0.1,0.5-0.1c0.3,0,0.6,0.1,0.9,0.2c0.3,0.1,0.5,0.3,0.7,0.6c0.2,0.3,0.3,0.6,0.5,1
				c0.1,0.4,0.2,0.9,0.2,1.4c0,0.6-0.1,1.1-0.2,1.6c-0.1,0.4-0.3,0.8-0.5,1.1c-0.2,0.3-0.4,0.5-0.7,0.6c-0.3,0.1-0.5,0.2-0.8,0.2
				c-0.2,0-0.4,0-0.6-0.1c-0.2,0-0.3-0.1-0.5-0.2c-0.1-0.1-0.2-0.1-0.3-0.2c-0.1-0.1-0.2-0.1-0.2-0.2v3.1c0,0.1,0,0.1,0,0.2
				c0,0.1-0.1,0.1-0.1,0.2c-0.1,0.1-0.2,0.1-0.3,0.2c-0.1,0.1-0.3,0.1-0.5,0.1c-0.2,0-0.4,0-0.5-0.1c-0.1-0.1-0.2-0.1-0.3-0.2
				c-0.1-0.1-0.1-0.1-0.1-0.2c0-0.1,0-0.1,0-0.2V-279.9z M-510.3-275.8c0,0,0,0.1,0,0.2c0,0.1,0.1,0.2,0.1,0.3
				c0.1,0.1,0.1,0.2,0.2,0.2c0.1,0.1,0.2,0.1,0.4,0.1c0.2,0,0.3-0.1,0.5-0.2c0.1-0.1,0.2-0.3,0.3-0.6c0.1-0.2,0.1-0.5,0.2-0.8
				c0-0.3,0.1-0.7,0.1-1c0-0.4,0-0.8-0.1-1.1c0-0.3-0.1-0.6-0.2-0.8c-0.1-0.2-0.2-0.3-0.3-0.4c-0.1-0.1-0.3-0.1-0.4-0.1
				c-0.1,0-0.2,0-0.3,0.1c-0.1,0.1-0.2,0.1-0.3,0.2c-0.1,0.1-0.1,0.2-0.2,0.3c0,0.1-0.1,0.2-0.1,0.3V-275.8z"/>
		</g>
	</g>
	<g transform="translate(607.639922, 383.338204)">
		<g>
			<path class="st6" d="M-537.3-279.9c0-0.1,0-0.2-0.1-0.3c-0.1-0.1-0.2-0.1-0.3-0.1c-0.1,0-0.1,0-0.2,0c-0.1,0-0.1,0.1-0.2,0.1
				l-0.1-0.2c0.1-0.1,0.2-0.2,0.3-0.2c0.1-0.1,0.3-0.1,0.4-0.2c0.1-0.1,0.3-0.1,0.4-0.1c0.2,0,0.3-0.1,0.5-0.1c0.2,0,0.4,0,0.5,0.1
				c0.1,0.1,0.2,0.1,0.3,0.2c0.1,0.1,0.2,0.2,0.2,0.3c0,0.1,0.1,0.2,0.1,0.2c0.1-0.1,0.2-0.2,0.3-0.3c0.1-0.1,0.2-0.2,0.4-0.2
				c0.1-0.1,0.3-0.1,0.4-0.2c0.2,0,0.3-0.1,0.5-0.1c0.3,0,0.6,0.1,0.9,0.2c0.3,0.1,0.5,0.3,0.7,0.6c0.2,0.3,0.3,0.6,0.5,1
				c0.1,0.4,0.2,0.9,0.2,1.4c0,0.6-0.1,1.1-0.2,1.6c-0.1,0.4-0.3,0.8-0.5,1.1c-0.2,0.3-0.4,0.5-0.7,0.6c-0.3,0.1-0.5,0.2-0.8,0.2
				c-0.2,0-0.4,0-0.6-0.1c-0.2,0-0.3-0.1-0.5-0.2c-0.1-0.1-0.2-0.1-0.3-0.2c-0.1-0.1-0.2-0.1-0.2-0.2v3.1c0,0.1,0,0.1,0,0.2
				c0,0.1-0.1,0.1-0.1,0.2c-0.1,0.1-0.2,0.1-0.3,0.2c-0.1,0.1-0.3,0.1-0.5,0.1c-0.2,0-0.4,0-0.5-0.1c-0.1-0.1-0.2-0.1-0.3-0.2
				c-0.1-0.1-0.1-0.1-0.1-0.2c0-0.1,0-0.1,0-0.2V-279.9z M-535.4-275.8c0,0,0,0.1,0,0.2c0,0.1,0.1,0.2,0.1,0.3
				c0.1,0.1,0.1,0.2,0.2,0.2c0.1,0.1,0.2,0.1,0.4,0.1c0.2,0,0.3-0.1,0.5-0.2c0.1-0.1,0.2-0.3,0.3-0.6c0.1-0.2,0.1-0.5,0.2-0.8
				c0-0.3,0.1-0.7,0.1-1c0-0.4,0-0.8-0.1-1.1c0-0.3-0.1-0.6-0.2-0.8c-0.1-0.2-0.2-0.3-0.3-0.4c-0.1-0.1-0.3-0.1-0.4-0.1
				c-0.1,0-0.2,0-0.3,0.1c-0.1,0.1-0.2,0.1-0.3,0.2c-0.1,0.1-0.1,0.2-0.2,0.3c0,0.1-0.1,0.2-0.1,0.3V-275.8z"/>
		</g>
	</g>
	<g transform="translate(639.756533, 383.338204)">
		<g>
			<path class="st6" d="M-560.8-277.3c0,0.1,0,0.3,0.1,0.4c0,0.2,0.1,0.3,0.2,0.5c0.1,0.2,0.2,0.3,0.3,0.5c0.1,0.1,0.2,0.3,0.4,0.4
				c0.1,0.1,0.3,0.2,0.5,0.3c0.2,0.1,0.4,0.1,0.6,0.1c0.1,0,0.3,0,0.4,0c0.1,0,0.2-0.1,0.4-0.1c0.1-0.1,0.2-0.1,0.3-0.2
				c0.1-0.1,0.2-0.2,0.3-0.2l0.2,0.2c-0.1,0.1-0.2,0.3-0.4,0.4c-0.2,0.2-0.3,0.3-0.5,0.4c-0.2,0.1-0.5,0.3-0.8,0.3
				c-0.3,0.1-0.6,0.1-1,0.1c-0.4,0-0.7-0.1-1.1-0.2c-0.3-0.1-0.7-0.3-0.9-0.6c-0.3-0.3-0.5-0.6-0.6-1c-0.2-0.4-0.2-0.9-0.2-1.4
				c0-0.4,0-0.7,0.1-1.1c0.1-0.3,0.2-0.6,0.4-0.9c0.2-0.3,0.4-0.5,0.6-0.7c0.2-0.2,0.5-0.4,0.7-0.5c0.2-0.1,0.5-0.2,0.7-0.3
				c0.3-0.1,0.5-0.1,0.7-0.1c0.3,0,0.6,0,0.8,0.1c0.2,0.1,0.4,0.2,0.6,0.3c0.2,0.1,0.3,0.2,0.3,0.4c0.1,0.1,0.1,0.3,0.1,0.5
				c0,0.2-0.1,0.4-0.2,0.5c-0.1,0.2-0.3,0.3-0.5,0.4L-560.8-277.3z M-559.6-278.6c0.1,0,0.1-0.1,0.1-0.1c0,0,0.1-0.1,0.1-0.1
				c0,0,0-0.1,0-0.2c0-0.1,0-0.1,0-0.2c0-0.1,0-0.2,0-0.3c0-0.1-0.1-0.3-0.1-0.4c-0.1-0.1-0.1-0.2-0.2-0.3c-0.1-0.1-0.2-0.1-0.3-0.1
				c-0.2,0-0.3,0-0.4,0.1c-0.1,0.1-0.2,0.2-0.3,0.3c-0.1,0.1-0.1,0.3-0.2,0.5c0,0.2-0.1,0.4-0.1,0.5c0,0.2,0,0.4,0,0.5
				c0,0.2,0,0.3,0,0.4L-559.6-278.6z"/>
		</g>
	</g>
	<g transform="translate(667.136521, 383.338204)">
		<g>
			<path class="st6" d="M-581.9-279.6c0.2-0.2,0.3-0.5,0.5-0.7c0.1-0.1,0.2-0.2,0.2-0.2c0.1-0.1,0.2-0.2,0.3-0.2
				c0.1-0.1,0.2-0.1,0.3-0.2c0.1,0,0.2-0.1,0.3-0.1c0.2,0,0.4,0.1,0.5,0.2c0.1,0.1,0.2,0.3,0.2,0.5c0,0.1,0,0.3,0,0.4
				c0,0.1-0.1,0.3-0.1,0.5h-0.2c0-0.1-0.1-0.2-0.2-0.3c-0.1-0.1-0.2-0.1-0.4-0.1c-0.1,0-0.3,0-0.4,0.1c-0.1,0-0.2,0.1-0.4,0.2
				c-0.1,0.1-0.2,0.1-0.3,0.2c-0.1,0.1-0.2,0.2-0.3,0.2v4.1c0,0.1,0,0.1,0,0.2c0,0.1-0.1,0.1-0.1,0.2c-0.1,0.1-0.2,0.1-0.3,0.2
				c-0.1,0-0.3,0.1-0.5,0.1c-0.2,0-0.4,0-0.5-0.1c-0.1-0.1-0.2-0.1-0.3-0.2c-0.1-0.1-0.1-0.1-0.1-0.2c0-0.1,0-0.1,0-0.2v-4.9
				c0-0.1,0-0.2-0.1-0.3c-0.1-0.1-0.2-0.1-0.3-0.1c-0.1,0-0.1,0-0.2,0c-0.1,0-0.1,0.1-0.2,0.1l-0.1-0.2c0.1-0.1,0.2-0.2,0.3-0.2
				c0.1-0.1,0.3-0.1,0.4-0.2c0.1-0.1,0.3-0.1,0.4-0.1c0.2,0,0.3-0.1,0.5-0.1c0.2,0,0.3,0,0.5,0.1c0.1,0,0.2,0.1,0.3,0.2
				c0.1,0.1,0.1,0.2,0.2,0.3c0,0.1,0.1,0.2,0.1,0.3c0,0.1,0,0.2,0,0.3C-581.9-279.8-581.9-279.7-581.9-279.6z"/>
		</g>
	</g>
	<g transform="translate(690.617461, 383.338204)">
		<g>
			<path class="st6" d="M-600.2-280.5c-0.1,0-0.2,0-0.3,0c-0.1,0-0.2,0.1-0.2,0.1c-0.1,0.1-0.1,0.1-0.2,0.2c0,0.1-0.1,0.2-0.1,0.3
				c0,0.2,0.1,0.3,0.2,0.5c0.1,0.2,0.3,0.3,0.4,0.5c0.2,0.2,0.4,0.4,0.6,0.5c0.2,0.2,0.4,0.4,0.6,0.6c0.2,0.2,0.3,0.4,0.5,0.7
				c0.1,0.2,0.2,0.5,0.2,0.8c0,0.3-0.1,0.6-0.2,0.8c-0.1,0.2-0.2,0.4-0.4,0.6c-0.2,0.2-0.4,0.3-0.7,0.4c-0.3,0.1-0.6,0.1-0.9,0.1
				c-0.3,0-0.6,0-0.8-0.1c-0.2-0.1-0.4-0.2-0.6-0.3c-0.2-0.1-0.3-0.2-0.5-0.4c-0.1-0.1-0.2-0.3-0.3-0.4l0.2-0.2
				c0.1,0.1,0.1,0.1,0.2,0.2c0.1,0.1,0.2,0.1,0.3,0.2c0.1,0.1,0.2,0.1,0.3,0.2c0.1,0,0.2,0.1,0.4,0.1c0.3,0,0.6-0.1,0.7-0.2
				c0.2-0.1,0.3-0.4,0.3-0.6c0-0.2-0.1-0.3-0.2-0.5c-0.1-0.2-0.2-0.3-0.4-0.5c-0.2-0.2-0.3-0.4-0.5-0.6c-0.2-0.2-0.4-0.4-0.5-0.6
				c-0.2-0.2-0.3-0.4-0.4-0.6c-0.1-0.2-0.2-0.4-0.2-0.7c0-0.3,0.1-0.5,0.2-0.7c0.1-0.2,0.2-0.4,0.4-0.5c0.2-0.1,0.4-0.2,0.6-0.3
				c0.2-0.1,0.5-0.1,0.7-0.1c0.3,0,0.5,0,0.8,0.1c0.2,0.1,0.4,0.1,0.6,0.2c0.2,0.1,0.3,0.2,0.4,0.4c0.1,0.2,0.1,0.3,0.1,0.5
				c0,0.2-0.1,0.3-0.2,0.4c-0.1,0.1-0.3,0.2-0.4,0.2c-0.2,0-0.3,0-0.4-0.1c-0.1-0.1-0.1-0.2-0.1-0.3c0-0.1,0-0.2,0.1-0.2
				c0-0.1,0.1-0.1,0.1-0.1c0.1,0,0.1-0.1,0.1-0.1c0,0,0.1-0.1,0.1-0.1c0-0.1-0.1-0.2-0.2-0.3C-599.8-280.4-600-280.5-600.2-280.5z"
				/>
		</g>
	</g>
</g>
<g>
	<g transform="translate(385.512171, 424.999422)">
		<g>
			<path class="st6" d="M-361.9-309.9c0-0.4-0.4-0.8-0.8-0.8h-1.5v3.7h1.9c0.7,0,1.1-0.6,1.1-1.2c0-0.6-0.4-1.1-1-1.2
				C-362-309.5-361.9-309.7-361.9-309.9z M-363.7-309.4v-0.9h0.9c0.3,0,0.6,0.2,0.6,0.5c0,0.2-0.1,0.5-0.4,0.5H-363.7z
				 M-363.7-307.3v-1.7h1.2c0.6,0,0.9,0.4,0.9,0.8c0,0.5-0.3,0.8-0.9,0.8H-363.7z"/>
		</g>
	</g>
</g>
<g>
	<g transform="translate(407.66421, 424.999422)">
		<g>
			<path class="st6" d="M-378.8-309.8h-0.4v0.3c-0.3-0.2-0.6-0.3-1-0.3c-0.9,0-1.4,0.7-1.4,1.5c0,0.8,0.6,1.5,1.4,1.5
				c0.4,0,0.7-0.1,1-0.3v0.3h0.4V-309.8z M-379.2-307.6c-0.2,0.2-0.5,0.3-0.9,0.3c-0.6,0-1.1-0.5-1.1-1.1s0.5-1.1,1.1-1.1
				c0.4,0,0.7,0.1,0.9,0.3V-307.6z"/>
		</g>
	</g>
</g>
<g>
	<g transform="translate(429.048247, 424.999422)">
		<g>
			<path class="st6" d="M-396.8-309.9c-0.4,0-0.7,0.1-0.9,0.3v-0.3h-0.4v2.8h0.4v-2.2c0.2-0.2,0.5-0.3,0.9-0.3
				c0.5,0,0.8,0.3,0.8,0.9v1.6h0.4v-1.6C-395.6-309.4-396.1-309.9-396.8-309.9z"/>
		</g>
	</g>
</g>
<g>
	<g transform="translate(449.688278, 424.999422)">
		<g>
			<path class="st6" d="M-411.6-309.8h-0.4v0.3c-0.3-0.2-0.6-0.3-1-0.3c-0.8,0-1.5,0.6-1.5,1.4c0,0.8,0.7,1.4,1.5,1.4
				c0.4,0,0.7-0.1,1-0.3l0,0.1c0,0.4-0.4,0.9-1,0.9c-0.5,0-0.7-0.1-1-0.2l-0.1,0.3c0.4,0.1,0.5,0.2,1.2,0.2c1,0,1.4-0.7,1.4-1.4
				V-309.8z M-414.1-308.4c0-0.6,0.5-1,1.1-1c0.4,0,0.7,0.1,0.9,0.3v1.4c-0.2,0.2-0.5,0.3-0.9,0.3
				C-413.6-307.4-414.1-307.8-414.1-308.4z"/>
		</g>
	</g>
</g>
<g>
	<g transform="translate(471.096315, 424.999422)">
		<g>
			<path class="st6" d="M-431.1-310.9v4h0.4v-4H-431.1z"/>
		</g>
	</g>
</g>
<g>
	<g transform="translate(482.160326, 424.999422)">
		<g>
			<path class="st6" d="M-437-309.8h-0.4v0.3c-0.3-0.2-0.6-0.3-1-0.3c-0.9,0-1.4,0.7-1.4,1.5c0,0.8,0.6,1.5,1.4,1.5
				c0.4,0,0.7-0.1,1-0.3v0.3h0.4V-309.8z M-437.4-307.6c-0.2,0.2-0.5,0.3-0.9,0.3c-0.6,0-1.1-0.5-1.1-1.1s0.5-1.1,1.1-1.1
				c0.4,0,0.7,0.1,0.9,0.3V-307.6z"/>
		</g>
	</g>
</g>
<g>
	<g transform="translate(503.544365, 424.999422)">
		<g>
			<path class="st6" d="M-453.7-310.9h-0.4v1.4c-0.3-0.2-0.6-0.3-1-0.3c-0.8,0-1.5,0.6-1.5,1.5c0,0.8,0.7,1.5,1.5,1.5
				c0.4,0,0.7-0.1,1-0.3v0.3h0.4V-310.9z M-455.1-307.3c-0.6,0-1.1-0.5-1.1-1.1c0-0.6,0.5-1.1,1.1-1.1c0.4,0,0.7,0.1,0.9,0.3v1.5
				C-454.4-307.4-454.7-307.3-455.1-307.3z"/>
		</g>
	</g>
</g>
<g>
	<g transform="translate(524.952403, 424.999422)">
		<g>
			<path class="st6" d="M-470.5-308.3c0,0,0-0.1,0-0.1c0-0.9-0.5-1.5-1.4-1.5s-1.4,0.7-1.4,1.5c0,0.8,0.6,1.5,1.4,1.5
				c0.5,0,1-0.2,1.3-0.6l-0.3-0.2c-0.2,0.3-0.5,0.4-0.9,0.4c-0.5,0-1-0.4-1.1-0.9H-470.5z M-471.9-309.5c0.6,0,0.9,0.4,0.9,0.9h-2
				C-472.8-309.1-472.4-309.5-471.9-309.5z"/>
		</g>
	</g>
</g>
<g>
	<g transform="translate(545.328436, 424.999422)">
		<g>
			<path class="st6" d="M-489.3-307.2c0.4,0.2,0.7,0.3,1.2,0.3c0.8,0,1.1-0.4,1.1-0.8c0-0.5-0.4-0.7-1.1-0.8
				c-0.5-0.1-0.8-0.2-0.8-0.5c0-0.3,0.3-0.4,0.7-0.4c0.3,0,0.6,0.1,0.9,0.2l0.1-0.3c-0.3-0.1-0.7-0.2-1.1-0.2
				c-0.6,0-1.1,0.3-1.1,0.8c0,0.5,0.4,0.7,1.1,0.8c0.5,0.1,0.8,0.2,0.8,0.5c0,0.2-0.2,0.5-0.7,0.5c-0.4,0-0.7-0.1-1-0.2
				L-489.3-307.2z"/>
		</g>
	</g>
</g>
<g>
	<g transform="translate(563.352467, 424.999422)">
		<g>
			<path class="st6" d="M-501.8-309.9c-0.4,0-0.7,0.1-0.9,0.3v-1.4h-0.4v4h0.4v-2.2c0.2-0.2,0.5-0.3,0.9-0.3c0.5,0,0.8,0.3,0.8,0.9
				v1.6h0.4v-1.6C-500.6-309.4-501-309.9-501.8-309.9z"/>
		</g>
	</g>
</g>
<g>
	<g transform="translate(592.176505, 424.999422)">
		<g>
			<path class="st6" d="M-524.3-309c-0.6-0.1-1-0.3-1-0.7c0-0.4,0.3-0.6,0.8-0.6c0.4,0,0.8,0.1,1.2,0.3l0.2-0.4
				c-0.3-0.2-0.9-0.3-1.3-0.3c-0.8,0-1.3,0.4-1.3,1c0,0.7,0.6,0.9,1.4,1.1c0.6,0.1,1,0.3,1,0.7c0,0.4-0.4,0.6-0.9,0.6
				c-0.5,0-0.8,0-1.3-0.3l-0.2,0.3c0.6,0.3,0.9,0.3,1.5,0.3c0.8,0,1.4-0.4,1.4-1C-523-308.6-523.6-308.8-524.3-309z"/>
		</g>
	</g>
</g>
<g>
	<g transform="translate(612.864537, 424.999422)">
		<g>
			<path class="st6" d="M-539.3-309.8h-0.4v2.2c-0.2,0.2-0.5,0.3-0.9,0.3c-0.5,0-0.9-0.3-0.9-0.9v-1.6h-0.4v1.6
				c0,0.9,0.5,1.3,1.2,1.3c0.4,0,0.7-0.1,1-0.3v0.3h0.4V-309.8z"/>
		</g>
	</g>
</g>
<g>
	<g transform="translate(633.672573, 424.999422)">
		<g>
			<path class="st6" d="M-555.7-309.1c0.2-0.2,0.5-0.3,0.8-0.3c0.5,0,0.9,0.3,0.9,0.9v1.6h0.4v-1.6c0-0.9-0.5-1.3-1.2-1.3
				c-0.4,0-0.7,0.2-1,0.4c-0.2-0.3-0.5-0.4-0.9-0.4c-0.4,0-0.7,0.1-0.9,0.3v-0.3h-0.4v2.8h0.4v-2.2c0.2-0.2,0.5-0.3,0.8-0.3
				c0.5,0,0.8,0.3,0.8,0.9v1.6h0.4v-1.6C-555.6-308.8-555.6-309-555.7-309.1z"/>
		</g>
	</g>
</g>
<g>
	<g transform="translate(662.832621, 424.999422)">
		<g>
			<path class="st6" d="M-578.5-309.1c0.2-0.2,0.5-0.3,0.8-0.3c0.5,0,0.9,0.3,0.9,0.9v1.6h0.4v-1.6c0-0.9-0.5-1.3-1.2-1.3
				c-0.4,0-0.7,0.2-1,0.4c-0.2-0.3-0.5-0.4-0.9-0.4c-0.4,0-0.7,0.1-0.9,0.3v-0.3h-0.4v2.8h0.4v-2.2c0.2-0.2,0.5-0.3,0.8-0.3
				c0.5,0,0.8,0.3,0.8,0.9v1.6h0.4v-1.6C-578.4-308.8-578.4-309-578.5-309.1z"/>
		</g>
	</g>
</g>
<g>
	<g transform="translate(691.992669, 424.999422)">
		<g>
			<path class="st6" d="M-603.4-310.3c0.1,0,0.3-0.1,0.3-0.3c0-0.2-0.1-0.3-0.3-0.3c-0.2,0-0.3,0.1-0.3,0.3
				C-603.7-310.4-603.6-310.3-603.4-310.3z M-603.7-309.8v2.8h0.4v-2.8H-603.7z"/>
		</g>
	</g>
</g>
<g>
	<g transform="translate(703.080689, 424.999422)">
		<g>
			<path class="st6" d="M-611.7-309.4h1v-0.4h-1v-1.1h-0.4v1.1h-0.5v0.4h0.5v1.7c0,0.6,0.4,0.9,0.8,0.9c0.3,0,0.5-0.1,0.6-0.1v-0.3
				c-0.1,0-0.2,0-0.4,0c-0.4,0-0.5-0.2-0.5-0.7V-309.4z"/>
		</g>
	</g>
</g>
<g>
	
		<image style="overflow:visible;" width="1050" height="1200" id="SDOC-6B80FF5C21C383C4DD826458015541CF-09-21-SI_x5F__xA0_Image_00000157997863915960391480000008964401844432425111_" xlink:href="6882A615.png"  transform="matrix(7.591918e-03 0 0 7.591921e-03 17.2053 100.8309)">
	</image>
</g>
</svg>
